<svg width="400" height="350" viewBox="0 0 400 350" fill="none" xmlns="http://www.w3.org/2000/svg">
<path d="M18.9348 289.904V290.744C18.2682 290.744 17.6815 290.797 17.1748 290.904C16.6682 290.984 16.3348 291.25 16.1748 291.704C16.0148 292.157 16.1348 292.957 16.5348 294.104L20.6948 306.024L20.4148 305.984L26.2948 289.744L27.0948 290.064L19.7748 310.704C19.6682 310.704 19.5615 310.704 19.4548 310.704C19.3482 310.704 19.2282 310.704 19.0948 310.704L12.5348 292.984C12.1082 291.917 11.6815 291.277 11.2548 291.064C10.8548 290.85 10.5082 290.744 10.2148 290.744V289.904C10.7482 289.984 11.2948 290.05 11.8548 290.104C12.4415 290.13 13.0682 290.144 13.7348 290.144C14.5615 290.144 15.4282 290.117 16.3348 290.064C17.2682 290.01 18.1348 289.957 18.9348 289.904ZM40.8948 289.904V290.704C40.3882 290.757 39.9082 290.984 39.4548 291.384C39.0282 291.757 38.6415 292.464 38.2948 293.504L32.4948 310.704C32.3882 310.704 32.2815 310.704 32.1748 310.704C32.0682 310.704 31.9482 310.704 31.8148 310.704L25.3748 294.344L26.2948 289.744C26.4548 289.744 26.6015 289.744 26.7348 289.744C26.8948 289.744 27.0548 289.744 27.2148 289.744L33.4548 306.264L33.1348 306.504L37.0948 294.464C37.3882 293.557 37.4948 292.85 37.4148 292.344C37.3615 291.81 37.0948 291.424 36.6148 291.184C36.1615 290.917 35.4548 290.757 34.4948 290.704V289.904C34.9748 289.93 35.3882 289.957 35.7348 289.984C36.0815 289.984 36.4148 289.997 36.7348 290.024C37.0815 290.024 37.4548 290.024 37.8548 290.024C38.4682 290.024 39.0148 290.01 39.4948 289.984C40.0015 289.957 40.4682 289.93 40.8948 289.904ZM49.7161 289.904V290.744C49.0494 290.744 48.4628 290.797 47.9561 290.904C47.4494 290.984 47.1161 291.25 46.9561 291.704C46.7961 292.157 46.9161 292.957 47.3161 294.104L51.4761 306.024L51.1961 305.984L57.0761 289.744L57.8761 290.064L50.5561 310.704C50.4494 310.704 50.3428 310.704 50.2361 310.704C50.1294 310.704 50.0094 310.704 49.8761 310.704L43.3161 292.984C42.8894 291.917 42.4628 291.277 42.0361 291.064C41.6361 290.85 41.2894 290.744 40.9961 290.744V289.904C41.5294 289.984 42.0761 290.05 42.6361 290.104C43.2228 290.13 43.8494 290.144 44.5161 290.144C45.3428 290.144 46.2094 290.117 47.1161 290.064C48.0494 290.01 48.9161 289.957 49.7161 289.904ZM71.6761 289.904V290.704C71.1694 290.757 70.6894 290.984 70.2361 291.384C69.8094 291.757 69.4228 292.464 69.0761 293.504L63.2761 310.704C63.1694 310.704 63.0628 310.704 62.9561 310.704C62.8494 310.704 62.7294 310.704 62.5961 310.704L56.1561 294.344L57.0761 289.744C57.2361 289.744 57.3828 289.744 57.5161 289.744C57.6761 289.744 57.8361 289.744 57.9961 289.744L64.2361 306.264L63.9161 306.504L67.8761 294.464C68.1694 293.557 68.2761 292.85 68.1961 292.344C68.1428 291.81 67.8761 291.424 67.3961 291.184C66.9428 290.917 66.2361 290.757 65.2761 290.704V289.904C65.7561 289.93 66.1694 289.957 66.5161 289.984C66.8628 289.984 67.1961 289.997 67.5161 290.024C67.8628 290.024 68.2361 290.024 68.6361 290.024C69.2494 290.024 69.7961 290.01 70.2761 289.984C70.7828 289.957 71.2494 289.93 71.6761 289.904ZM80.4973 289.904V290.744C79.8307 290.744 79.244 290.797 78.7373 290.904C78.2307 290.984 77.8973 291.25 77.7373 291.704C77.5773 292.157 77.6973 292.957 78.0973 294.104L82.2573 306.024L81.9773 305.984L87.8573 289.744L88.6573 290.064L81.3373 310.704C81.2307 310.704 81.124 310.704 81.0173 310.704C80.9107 310.704 80.7907 310.704 80.6573 310.704L74.0973 292.984C73.6707 291.917 73.244 291.277 72.8173 291.064C72.4173 290.85 72.0707 290.744 71.7773 290.744V289.904C72.3107 289.984 72.8573 290.05 73.4173 290.104C74.004 290.13 74.6307 290.144 75.2973 290.144C76.124 290.144 76.9907 290.117 77.8973 290.064C78.8307 290.01 79.6973 289.957 80.4973 289.904ZM102.457 289.904V290.704C101.951 290.757 101.471 290.984 101.017 291.384C100.591 291.757 100.204 292.464 99.8573 293.504L94.0573 310.704C93.9507 310.704 93.844 310.704 93.7373 310.704C93.6307 310.704 93.5107 310.704 93.3773 310.704L86.9373 294.344L87.8573 289.744C88.0173 289.744 88.164 289.744 88.2973 289.744C88.4573 289.744 88.6173 289.744 88.7773 289.744L95.0173 306.264L94.6973 306.504L98.6573 294.464C98.9507 293.557 99.0573 292.85 98.9773 292.344C98.924 291.81 98.6573 291.424 98.1773 291.184C97.724 290.917 97.0173 290.757 96.0573 290.704V289.904C96.5373 289.93 96.9507 289.957 97.2973 289.984C97.644 289.984 97.9773 289.997 98.2973 290.024C98.644 290.024 99.0173 290.024 99.4173 290.024C100.031 290.024 100.577 290.01 101.057 289.984C101.564 289.957 102.031 289.93 102.457 289.904ZM105.88 305.944C106.573 305.944 107.173 306.197 107.68 306.704C108.187 307.21 108.44 307.81 108.44 308.504C108.44 309.197 108.187 309.797 107.68 310.304C107.173 310.81 106.573 311.064 105.88 311.064C105.187 311.064 104.587 310.81 104.08 310.304C103.573 309.797 103.32 309.197 103.32 308.504C103.32 307.81 103.573 307.21 104.08 306.704C104.587 306.197 105.187 305.944 105.88 305.944ZM123.958 289.344C126.145 289.344 127.958 290.25 129.398 292.064C130.838 293.85 131.558 296.57 131.558 300.224C131.558 302.624 131.145 304.637 130.318 306.264C129.518 307.864 128.438 309.064 127.078 309.864C125.718 310.664 124.238 311.064 122.638 311.064C121.305 311.064 120.011 310.69 118.758 309.944C117.531 309.17 116.611 308.037 115.998 306.544L116.798 306.984C117.465 308.05 118.291 308.85 119.278 309.384C120.265 309.89 121.278 310.144 122.318 310.144C124.105 310.144 125.438 309.344 126.318 307.744C127.225 306.117 127.678 303.61 127.678 300.224C127.678 298.064 127.505 296.264 127.158 294.824C126.811 293.384 126.278 292.317 125.558 291.624C124.838 290.904 123.918 290.544 122.798 290.544C121.571 290.544 120.425 291.104 119.358 292.224C118.318 293.317 117.678 294.93 117.438 297.064L116.958 296.504C117.251 294.237 118.038 292.477 119.318 291.224C120.625 289.97 122.171 289.344 123.958 289.344ZM117.718 279.184V308.424C117.371 308.717 117.011 309.024 116.638 309.344C116.291 309.637 115.945 309.93 115.598 310.224C115.251 310.517 114.891 310.824 114.518 311.144L113.838 310.864C113.945 310.49 114.011 310.117 114.038 309.744C114.091 309.344 114.118 308.944 114.118 308.544V283.984C114.118 282.784 113.905 281.904 113.478 281.344C113.051 280.757 112.251 280.464 111.078 280.464V279.624C111.931 279.704 112.758 279.744 113.558 279.744C114.331 279.744 115.065 279.704 115.758 279.624C116.478 279.517 117.131 279.37 117.718 279.184ZM139.177 279.904C139.87 279.904 140.47 280.157 140.977 280.664C141.484 281.17 141.737 281.77 141.737 282.464C141.737 283.157 141.484 283.757 140.977 284.264C140.47 284.77 139.87 285.024 139.177 285.024C138.484 285.024 137.884 284.77 137.377 284.264C136.87 283.757 136.617 283.157 136.617 282.464C136.617 281.77 136.87 281.17 137.377 280.664C137.884 280.157 138.484 279.904 139.177 279.904ZM141.257 289.464V306.784C141.257 307.904 141.484 308.664 141.937 309.064C142.417 309.464 143.204 309.664 144.297 309.664V310.504C143.844 310.477 143.15 310.45 142.217 310.424C141.31 310.37 140.39 310.344 139.457 310.344C138.55 310.344 137.63 310.37 136.697 310.424C135.764 310.45 135.07 310.477 134.617 310.504V309.664C135.71 309.664 136.484 309.464 136.937 309.064C137.417 308.664 137.657 307.904 137.657 306.784V294.264C137.657 293.064 137.444 292.184 137.017 291.624C136.59 291.037 135.79 290.744 134.617 290.744V289.904C135.47 289.984 136.297 290.024 137.097 290.024C137.87 290.024 138.604 289.984 139.297 289.904C140.017 289.797 140.67 289.65 141.257 289.464ZM153.696 318.024C152.282 318.024 150.949 317.877 149.696 317.584C148.442 317.29 147.429 316.824 146.656 316.184C145.909 315.57 145.536 314.784 145.536 313.824C145.536 312.89 145.909 312.09 146.656 311.424C147.402 310.757 148.416 310.25 149.696 309.904L149.936 310.544C149.349 310.73 148.882 311.104 148.536 311.664C148.189 312.224 148.016 312.85 148.016 313.544C148.016 314.77 148.576 315.704 149.696 316.344C150.842 317.01 152.322 317.344 154.136 317.344C155.336 317.344 156.509 317.184 157.656 316.864C158.802 316.57 159.749 316.064 160.496 315.344C161.242 314.624 161.616 313.677 161.616 312.504C161.616 311.624 161.296 310.904 160.656 310.344C160.042 309.757 158.816 309.464 156.976 309.464H154.016C153.162 309.464 152.336 309.397 151.536 309.264C150.736 309.13 150.082 308.85 149.576 308.424C149.069 307.997 148.816 307.344 148.816 306.464C148.816 305.557 149.189 304.69 149.936 303.864C150.682 303.01 152.056 302.144 154.056 301.264L154.536 301.624C153.629 302.104 152.842 302.597 152.176 303.104C151.509 303.584 151.176 304.157 151.176 304.824C151.176 305.677 151.816 306.104 153.096 306.104H158.096C159.216 306.104 160.242 306.264 161.176 306.584C162.136 306.904 162.909 307.41 163.496 308.104C164.082 308.797 164.376 309.704 164.376 310.824C164.376 312.077 163.976 313.25 163.176 314.344C162.376 315.437 161.176 316.317 159.576 316.984C158.002 317.677 156.042 318.024 153.696 318.024ZM153.896 301.984C152.589 301.984 151.402 301.77 150.336 301.344C149.269 300.89 148.429 300.197 147.816 299.264C147.202 298.33 146.896 297.13 146.896 295.664C146.896 294.197 147.202 292.997 147.816 292.064C148.429 291.13 149.269 290.45 150.336 290.024C151.402 289.57 152.589 289.344 153.896 289.344C155.229 289.344 156.416 289.57 157.456 290.024C158.522 290.45 159.362 291.13 159.976 292.064C160.589 292.997 160.896 294.197 160.896 295.664C160.896 297.13 160.589 298.33 159.976 299.264C159.362 300.197 158.522 300.89 157.456 301.344C156.416 301.77 155.229 301.984 153.896 301.984ZM153.896 301.264C154.909 301.264 155.696 300.864 156.256 300.064C156.842 299.264 157.136 297.797 157.136 295.664C157.136 293.53 156.842 292.064 156.256 291.264C155.696 290.464 154.909 290.064 153.896 290.064C152.909 290.064 152.122 290.464 151.536 291.264C150.949 292.064 150.656 293.53 150.656 295.664C150.656 297.797 150.949 299.264 151.536 300.064C152.122 300.864 152.909 301.264 153.896 301.264ZM159.656 292.664L158.936 292.384C159.309 291.477 159.949 290.677 160.856 289.984C161.762 289.29 162.709 288.944 163.696 288.944C164.389 288.944 164.949 289.144 165.376 289.544C165.802 289.917 166.016 290.49 166.016 291.264C166.016 292.09 165.789 292.677 165.336 293.024C164.909 293.344 164.469 293.504 164.016 293.504C163.616 293.504 163.242 293.37 162.896 293.104C162.549 292.81 162.349 292.357 162.296 291.744C162.242 291.13 162.429 290.344 162.856 289.384L163.376 289.504C162.256 289.93 161.456 290.384 160.976 290.864C160.496 291.317 160.056 291.917 159.656 292.664ZM174.829 318.024C173.415 318.024 172.082 317.877 170.829 317.584C169.575 317.29 168.562 316.824 167.789 316.184C167.042 315.57 166.669 314.784 166.669 313.824C166.669 312.89 167.042 312.09 167.789 311.424C168.535 310.757 169.549 310.25 170.829 309.904L171.069 310.544C170.482 310.73 170.015 311.104 169.669 311.664C169.322 312.224 169.149 312.85 169.149 313.544C169.149 314.77 169.709 315.704 170.829 316.344C171.975 317.01 173.455 317.344 175.269 317.344C176.469 317.344 177.642 317.184 178.789 316.864C179.935 316.57 180.882 316.064 181.629 315.344C182.375 314.624 182.749 313.677 182.749 312.504C182.749 311.624 182.429 310.904 181.789 310.344C181.175 309.757 179.949 309.464 178.109 309.464H175.149C174.295 309.464 173.469 309.397 172.669 309.264C171.869 309.13 171.215 308.85 170.709 308.424C170.202 307.997 169.949 307.344 169.949 306.464C169.949 305.557 170.322 304.69 171.069 303.864C171.815 303.01 173.189 302.144 175.189 301.264L175.669 301.624C174.762 302.104 173.975 302.597 173.309 303.104C172.642 303.584 172.309 304.157 172.309 304.824C172.309 305.677 172.949 306.104 174.229 306.104H179.229C180.349 306.104 181.375 306.264 182.309 306.584C183.269 306.904 184.042 307.41 184.629 308.104C185.215 308.797 185.509 309.704 185.509 310.824C185.509 312.077 185.109 313.25 184.309 314.344C183.509 315.437 182.309 316.317 180.709 316.984C179.135 317.677 177.175 318.024 174.829 318.024ZM175.029 301.984C173.722 301.984 172.535 301.77 171.469 301.344C170.402 300.89 169.562 300.197 168.949 299.264C168.335 298.33 168.029 297.13 168.029 295.664C168.029 294.197 168.335 292.997 168.949 292.064C169.562 291.13 170.402 290.45 171.469 290.024C172.535 289.57 173.722 289.344 175.029 289.344C176.362 289.344 177.549 289.57 178.589 290.024C179.655 290.45 180.495 291.13 181.109 292.064C181.722 292.997 182.029 294.197 182.029 295.664C182.029 297.13 181.722 298.33 181.109 299.264C180.495 300.197 179.655 300.89 178.589 301.344C177.549 301.77 176.362 301.984 175.029 301.984ZM175.029 301.264C176.042 301.264 176.829 300.864 177.389 300.064C177.975 299.264 178.269 297.797 178.269 295.664C178.269 293.53 177.975 292.064 177.389 291.264C176.829 290.464 176.042 290.064 175.029 290.064C174.042 290.064 173.255 290.464 172.669 291.264C172.082 292.064 171.789 293.53 171.789 295.664C171.789 297.797 172.082 299.264 172.669 300.064C173.255 300.864 174.042 301.264 175.029 301.264ZM180.789 292.664L180.069 292.384C180.442 291.477 181.082 290.677 181.989 289.984C182.895 289.29 183.842 288.944 184.829 288.944C185.522 288.944 186.082 289.144 186.509 289.544C186.935 289.917 187.149 290.49 187.149 291.264C187.149 292.09 186.922 292.677 186.469 293.024C186.042 293.344 185.602 293.504 185.149 293.504C184.749 293.504 184.375 293.37 184.029 293.104C183.682 292.81 183.482 292.357 183.429 291.744C183.375 291.13 183.562 290.344 183.989 289.384L184.509 289.504C183.389 289.93 182.589 290.384 182.109 290.864C181.629 291.317 181.189 291.917 180.789 292.664ZM193.891 310.784C192.797 310.784 191.851 310.584 191.051 310.184C190.251 309.757 189.637 309.17 189.211 308.424C188.811 307.677 188.611 306.81 188.611 305.824C188.611 304.65 188.877 303.69 189.411 302.944C189.971 302.197 190.677 301.597 191.531 301.144C192.384 300.69 193.277 300.317 194.211 300.024C195.171 299.704 196.077 299.41 196.931 299.144C197.784 298.85 198.477 298.517 199.011 298.144C199.571 297.77 199.851 297.277 199.851 296.664V294.184C199.851 293.064 199.677 292.21 199.331 291.624C199.011 291.037 198.571 290.65 198.011 290.464C197.451 290.25 196.824 290.144 196.131 290.144C195.464 290.144 194.744 290.237 193.971 290.424C193.224 290.61 192.624 290.997 192.171 291.584C192.677 291.69 193.117 291.957 193.491 292.384C193.864 292.81 194.051 293.357 194.051 294.024C194.051 294.69 193.837 295.224 193.411 295.624C192.984 295.997 192.437 296.184 191.771 296.184C190.997 296.184 190.424 295.944 190.051 295.464C189.704 294.957 189.531 294.397 189.531 293.784C189.531 293.09 189.704 292.53 190.051 292.104C190.397 291.677 190.837 291.277 191.371 290.904C191.984 290.477 192.771 290.117 193.731 289.824C194.717 289.504 195.824 289.344 197.051 289.344C198.144 289.344 199.077 289.477 199.851 289.744C200.624 289.984 201.264 290.344 201.771 290.824C202.464 291.464 202.917 292.25 203.131 293.184C203.344 294.09 203.451 295.184 203.451 296.464V307.584C203.451 308.25 203.544 308.73 203.731 309.024C203.944 309.317 204.264 309.464 204.691 309.464C204.984 309.464 205.264 309.397 205.531 309.264C205.797 309.13 206.117 308.917 206.491 308.624L206.931 309.304C206.371 309.73 205.837 310.09 205.331 310.384C204.824 310.65 204.144 310.784 203.291 310.784C202.517 310.784 201.877 310.65 201.371 310.384C200.864 310.117 200.477 309.73 200.211 309.224C199.971 308.69 199.851 308.024 199.851 307.224C199.131 308.424 198.264 309.317 197.251 309.904C196.264 310.49 195.144 310.784 193.891 310.784ZM195.331 309.184C196.211 309.184 197.024 308.93 197.771 308.424C198.544 307.917 199.237 307.157 199.851 306.144V298.304C199.531 298.757 199.064 299.144 198.451 299.464C197.837 299.757 197.171 300.064 196.451 300.384C195.731 300.677 195.037 301.037 194.371 301.464C193.731 301.864 193.197 302.397 192.771 303.064C192.344 303.73 192.131 304.597 192.131 305.664C192.131 306.73 192.411 307.584 192.971 308.224C193.557 308.864 194.344 309.184 195.331 309.184ZM220.013 289.344C222.199 289.344 224.013 290.25 225.453 292.064C226.893 293.85 227.613 296.57 227.613 300.224C227.613 302.624 227.199 304.637 226.373 306.264C225.573 307.864 224.493 309.064 223.133 309.864C221.773 310.664 220.293 311.064 218.693 311.064C217.359 311.064 216.066 310.69 214.813 309.944C213.586 309.17 212.666 308.037 212.053 306.544L212.853 306.984C213.519 308.05 214.346 308.85 215.333 309.384C216.319 309.89 217.333 310.144 218.373 310.144C220.159 310.144 221.493 309.344 222.373 307.744C223.279 306.117 223.733 303.61 223.733 300.224C223.733 298.064 223.559 296.264 223.213 294.824C222.866 293.384 222.333 292.317 221.613 291.624C220.893 290.904 219.973 290.544 218.853 290.544C217.626 290.544 216.479 291.104 215.413 292.224C214.373 293.317 213.733 294.93 213.493 297.064L213.013 296.504C213.306 294.237 214.093 292.477 215.373 291.224C216.679 289.97 218.226 289.344 220.013 289.344ZM213.773 279.184V308.424C213.426 308.717 213.066 309.024 212.693 309.344C212.346 309.637 211.999 309.93 211.653 310.224C211.306 310.517 210.946 310.824 210.573 311.144L209.893 310.864C209.999 310.49 210.066 310.117 210.093 309.744C210.146 309.344 210.173 308.944 210.173 308.544V283.984C210.173 282.784 209.959 281.904 209.533 281.344C209.106 280.757 208.306 280.464 207.133 280.464V279.624C207.986 279.704 208.813 279.744 209.613 279.744C210.386 279.744 211.119 279.704 211.813 279.624C212.533 279.517 213.186 279.37 213.773 279.184ZM243.112 289.344C243.832 289.344 244.458 289.49 244.992 289.784C245.552 290.077 245.978 290.464 246.272 290.944C246.592 291.397 246.752 291.917 246.752 292.504C246.752 293.17 246.538 293.757 246.112 294.264C245.712 294.77 245.165 295.024 244.472 295.024C243.912 295.024 243.418 294.85 242.992 294.504C242.565 294.13 242.352 293.61 242.352 292.944C242.352 292.437 242.485 292.01 242.752 291.664C243.045 291.29 243.365 290.997 243.712 290.784C243.525 290.517 243.245 290.384 242.872 290.384C242.045 290.384 241.285 290.637 240.592 291.144C239.898 291.624 239.312 292.25 238.832 293.024C238.352 293.797 237.978 294.624 237.712 295.504C237.445 296.357 237.312 297.157 237.312 297.904V306.384C237.312 307.69 237.685 308.57 238.432 309.024C239.205 309.45 240.245 309.664 241.552 309.664V310.504C240.938 310.477 240.072 310.45 238.952 310.424C237.832 310.37 236.645 310.344 235.392 310.344C234.485 310.344 233.578 310.37 232.672 310.424C231.792 310.45 231.125 310.477 230.672 310.504V309.664C231.765 309.664 232.538 309.464 232.992 309.064C233.472 308.664 233.712 307.904 233.712 306.784V294.264C233.712 293.064 233.498 292.184 233.072 291.624C232.645 291.037 231.845 290.744 230.672 290.744V289.904C231.525 289.984 232.352 290.024 233.152 290.024C233.925 290.024 234.658 289.984 235.352 289.904C236.072 289.797 236.725 289.65 237.312 289.464V294.464C237.605 293.69 238.018 292.917 238.552 292.144C239.112 291.344 239.778 290.677 240.552 290.144C241.325 289.61 242.178 289.344 243.112 289.344ZM254.164 310.784C253.071 310.784 252.124 310.584 251.324 310.184C250.524 309.757 249.911 309.17 249.484 308.424C249.084 307.677 248.884 306.81 248.884 305.824C248.884 304.65 249.151 303.69 249.684 302.944C250.244 302.197 250.951 301.597 251.804 301.144C252.658 300.69 253.551 300.317 254.484 300.024C255.444 299.704 256.351 299.41 257.204 299.144C258.058 298.85 258.751 298.517 259.284 298.144C259.844 297.77 260.124 297.277 260.124 296.664V294.184C260.124 293.064 259.951 292.21 259.604 291.624C259.284 291.037 258.844 290.65 258.284 290.464C257.724 290.25 257.098 290.144 256.404 290.144C255.738 290.144 255.018 290.237 254.244 290.424C253.498 290.61 252.898 290.997 252.444 291.584C252.951 291.69 253.391 291.957 253.764 292.384C254.138 292.81 254.324 293.357 254.324 294.024C254.324 294.69 254.111 295.224 253.684 295.624C253.258 295.997 252.711 296.184 252.044 296.184C251.271 296.184 250.698 295.944 250.324 295.464C249.978 294.957 249.804 294.397 249.804 293.784C249.804 293.09 249.978 292.53 250.324 292.104C250.671 291.677 251.111 291.277 251.644 290.904C252.258 290.477 253.044 290.117 254.004 289.824C254.991 289.504 256.098 289.344 257.324 289.344C258.418 289.344 259.351 289.477 260.124 289.744C260.898 289.984 261.538 290.344 262.044 290.824C262.738 291.464 263.191 292.25 263.404 293.184C263.618 294.09 263.724 295.184 263.724 296.464V307.584C263.724 308.25 263.818 308.73 264.004 309.024C264.218 309.317 264.538 309.464 264.964 309.464C265.258 309.464 265.538 309.397 265.804 309.264C266.071 309.13 266.391 308.917 266.764 308.624L267.204 309.304C266.644 309.73 266.111 310.09 265.604 310.384C265.098 310.65 264.418 310.784 263.564 310.784C262.791 310.784 262.151 310.65 261.644 310.384C261.138 310.117 260.751 309.73 260.484 309.224C260.244 308.69 260.124 308.024 260.124 307.224C259.404 308.424 258.538 309.317 257.524 309.904C256.538 310.49 255.418 310.784 254.164 310.784ZM255.604 309.184C256.484 309.184 257.298 308.93 258.044 308.424C258.818 307.917 259.511 307.157 260.124 306.144V298.304C259.804 298.757 259.338 299.144 258.724 299.464C258.111 299.757 257.444 300.064 256.724 300.384C256.004 300.677 255.311 301.037 254.644 301.464C254.004 301.864 253.471 302.397 253.044 303.064C252.618 303.73 252.404 304.597 252.404 305.664C252.404 306.73 252.684 307.584 253.244 308.224C253.831 308.864 254.618 309.184 255.604 309.184ZM272.966 279.904C273.659 279.904 274.259 280.157 274.766 280.664C275.273 281.17 275.526 281.77 275.526 282.464C275.526 283.157 275.273 283.757 274.766 284.264C274.259 284.77 273.659 285.024 272.966 285.024C272.273 285.024 271.673 284.77 271.166 284.264C270.659 283.757 270.406 283.157 270.406 282.464C270.406 281.77 270.659 281.17 271.166 280.664C271.673 280.157 272.273 279.904 272.966 279.904ZM275.046 289.464V306.784C275.046 307.904 275.273 308.664 275.726 309.064C276.206 309.464 276.993 309.664 278.086 309.664V310.504C277.633 310.477 276.939 310.45 276.006 310.424C275.099 310.37 274.179 310.344 273.246 310.344C272.339 310.344 271.419 310.37 270.486 310.424C269.553 310.45 268.859 310.477 268.406 310.504V309.664C269.499 309.664 270.273 309.464 270.726 309.064C271.206 308.664 271.446 307.904 271.446 306.784V294.264C271.446 293.064 271.233 292.184 270.806 291.624C270.379 291.037 269.579 290.744 268.406 290.744V289.904C269.259 289.984 270.086 290.024 270.886 290.024C271.659 290.024 272.393 289.984 273.086 289.904C273.806 289.797 274.459 289.65 275.046 289.464ZM293.565 289.344C294.578 289.344 295.418 289.477 296.085 289.744C296.778 290.01 297.352 290.384 297.805 290.864C298.312 291.397 298.672 292.064 298.885 292.864C299.098 293.664 299.205 294.744 299.205 296.104V306.784C299.205 307.904 299.432 308.664 299.885 309.064C300.365 309.464 301.152 309.664 302.245 309.664V310.504C301.792 310.477 301.098 310.45 300.165 310.424C299.232 310.37 298.325 310.344 297.445 310.344C296.565 310.344 295.698 310.37 294.845 310.424C294.018 310.45 293.392 310.477 292.965 310.504V309.664C293.925 309.664 294.605 309.464 295.005 309.064C295.405 308.664 295.605 307.904 295.605 306.784V295.224C295.605 294.397 295.538 293.637 295.405 292.944C295.272 292.25 294.965 291.69 294.485 291.264C294.032 290.837 293.325 290.624 292.365 290.624C291.245 290.624 290.258 290.944 289.405 291.584C288.578 292.224 287.925 293.104 287.445 294.224C286.992 295.317 286.765 296.544 286.765 297.904V306.784C286.765 307.904 286.965 308.664 287.365 309.064C287.765 309.464 288.445 309.664 289.405 309.664V310.504C288.978 310.477 288.338 310.45 287.485 310.424C286.658 310.37 285.805 310.344 284.925 310.344C284.045 310.344 283.138 310.37 282.205 310.424C281.272 310.45 280.578 310.477 280.125 310.504V309.664C281.218 309.664 281.992 309.464 282.445 309.064C282.925 308.664 283.165 307.904 283.165 306.784V294.264C283.165 293.064 282.952 292.184 282.525 291.624C282.098 291.037 281.298 290.744 280.125 290.744V289.904C280.978 289.984 281.805 290.024 282.605 290.024C283.378 290.024 284.112 289.984 284.805 289.904C285.525 289.797 286.178 289.65 286.765 289.464V294.184C287.458 292.37 288.418 291.117 289.645 290.424C290.898 289.704 292.205 289.344 293.565 289.344ZM307.872 305.944C308.565 305.944 309.165 306.197 309.672 306.704C310.179 307.21 310.432 307.81 310.432 308.504C310.432 309.197 310.179 309.797 309.672 310.304C309.165 310.81 308.565 311.064 307.872 311.064C307.179 311.064 306.579 310.81 306.072 310.304C305.565 309.797 305.312 309.197 305.312 308.504C305.312 307.81 305.565 307.21 306.072 306.704C306.579 306.197 307.179 305.944 307.872 305.944ZM324.07 289.344C324.923 289.344 325.75 289.45 326.55 289.664C327.35 289.877 328.07 290.197 328.71 290.624C329.323 291.024 329.79 291.49 330.11 292.024C330.43 292.53 330.59 293.09 330.59 293.704C330.59 294.424 330.39 294.984 329.99 295.384C329.59 295.757 329.083 295.944 328.47 295.944C327.883 295.944 327.363 295.77 326.91 295.424C326.483 295.077 326.27 294.584 326.27 293.944C326.27 293.33 326.43 292.837 326.75 292.464C327.097 292.09 327.497 291.85 327.95 291.744C327.683 291.264 327.203 290.864 326.51 290.544C325.843 290.224 325.123 290.064 324.35 290.064C323.683 290.064 323.017 290.224 322.35 290.544C321.683 290.864 321.07 291.397 320.51 292.144C319.95 292.864 319.497 293.864 319.15 295.144C318.803 296.397 318.63 297.97 318.63 299.864C318.63 302.21 318.897 304.077 319.43 305.464C319.963 306.85 320.657 307.85 321.51 308.464C322.39 309.05 323.35 309.344 324.39 309.344C325.083 309.344 325.79 309.21 326.51 308.944C327.23 308.677 327.91 308.25 328.55 307.664C329.19 307.05 329.737 306.237 330.19 305.224L330.95 305.504C330.683 306.357 330.243 307.224 329.63 308.104C329.017 308.957 328.217 309.664 327.23 310.224C326.243 310.784 325.03 311.064 323.59 311.064C321.937 311.064 320.443 310.637 319.11 309.784C317.777 308.93 316.71 307.717 315.91 306.144C315.137 304.544 314.75 302.65 314.75 300.464C314.75 298.277 315.137 296.357 315.91 294.704C316.71 293.024 317.817 291.717 319.23 290.784C320.643 289.824 322.257 289.344 324.07 289.344ZM343.323 289.344C345.03 289.344 346.563 289.717 347.923 290.464C349.283 291.21 350.363 292.384 351.163 293.984C351.99 295.584 352.403 297.664 352.403 300.224C352.403 302.784 351.99 304.864 351.163 306.464C350.363 308.037 349.283 309.197 347.923 309.944C346.563 310.69 345.03 311.064 343.323 311.064C341.643 311.064 340.11 310.69 338.723 309.944C337.363 309.197 336.27 308.037 335.443 306.464C334.643 304.864 334.243 302.784 334.243 300.224C334.243 297.664 334.643 295.584 335.443 293.984C336.27 292.384 337.363 291.21 338.723 290.464C340.11 289.717 341.643 289.344 343.323 289.344ZM343.323 290.144C341.803 290.144 340.55 290.93 339.563 292.504C338.603 294.077 338.123 296.65 338.123 300.224C338.123 303.797 338.603 306.37 339.563 307.944C340.55 309.49 341.803 310.264 343.323 310.264C344.843 310.264 346.083 309.49 347.043 307.944C348.03 306.37 348.523 303.797 348.523 300.224C348.523 296.65 348.03 294.077 347.043 292.504C346.083 290.93 344.843 290.144 343.323 290.144ZM368.637 289.344C369.571 289.344 370.384 289.477 371.077 289.744C371.771 290.01 372.344 290.384 372.797 290.864C373.304 291.397 373.651 292.09 373.837 292.944C374.024 293.797 374.117 294.85 374.117 296.104V306.784C374.117 307.904 374.344 308.664 374.797 309.064C375.277 309.464 376.064 309.664 377.157 309.664V310.504C376.704 310.477 376.011 310.45 375.077 310.424C374.144 310.37 373.237 310.344 372.357 310.344C371.477 310.344 370.611 310.37 369.757 310.424C368.931 310.45 368.304 310.477 367.877 310.504V309.664C368.837 309.664 369.517 309.464 369.917 309.064C370.317 308.664 370.517 307.904 370.517 306.784V295.224C370.517 294.397 370.464 293.637 370.357 292.944C370.251 292.25 369.984 291.69 369.557 291.264C369.131 290.837 368.437 290.624 367.477 290.624C366.437 290.624 365.504 290.944 364.677 291.584C363.877 292.224 363.237 293.104 362.757 294.224C362.304 295.317 362.077 296.544 362.077 297.904V306.784C362.077 307.904 362.277 308.664 362.677 309.064C363.077 309.464 363.757 309.664 364.717 309.664V310.504C364.291 310.477 363.651 310.45 362.797 310.424C361.971 310.37 361.117 310.344 360.237 310.344C359.357 310.344 358.451 310.37 357.517 310.424C356.584 310.45 355.891 310.477 355.437 310.504V309.664C356.531 309.664 357.304 309.464 357.757 309.064C358.237 308.664 358.477 307.904 358.477 306.784V294.264C358.477 293.064 358.264 292.184 357.837 291.624C357.411 291.037 356.611 290.744 355.437 290.744V289.904C356.291 289.984 357.117 290.024 357.917 290.024C358.691 290.024 359.424 289.984 360.117 289.904C360.837 289.797 361.491 289.65 362.077 289.464V294.184C362.771 292.45 363.717 291.21 364.917 290.464C366.117 289.717 367.357 289.344 368.637 289.344ZM380.677 289.344C381.611 289.344 382.424 289.477 383.117 289.744C383.811 290.01 384.384 290.384 384.837 290.864C385.344 291.397 385.691 292.09 385.877 292.944C386.064 293.797 386.157 294.85 386.157 296.104V306.784C386.157 307.904 386.384 308.664 386.837 309.064C387.317 309.464 388.104 309.664 389.197 309.664V310.504C388.744 310.477 388.051 310.45 387.117 310.424C386.184 310.37 385.277 310.344 384.397 310.344C383.517 310.344 382.651 310.37 381.797 310.424C380.971 310.45 380.344 310.477 379.917 310.504V309.664C380.877 309.664 381.557 309.464 381.957 309.064C382.357 308.664 382.557 307.904 382.557 306.784V295.224C382.557 294.397 382.504 293.637 382.397 292.944C382.291 292.25 382.024 291.69 381.597 291.264C381.171 290.837 380.477 290.624 379.517 290.624C378.477 290.624 377.544 290.944 376.717 291.584C375.917 292.224 375.277 293.09 374.797 294.184C374.344 295.277 374.117 296.504 374.117 297.864L373.997 294.144C374.717 292.304 375.691 291.05 376.917 290.384C378.144 289.69 379.397 289.344 380.677 289.344Z" fill="black"/>
<path d="M195.622 0.642721C194.042 1.01313 190.757 2.17726 188.23 3.28848L183.745 5.24634L173.068 5.40508C163.845 5.51092 161.95 5.66966 158.665 6.72796C156.58 7.41586 152.473 8.15667 149.504 8.36833C141.228 9.05623 136.932 10.5379 131.879 14.4007C129.604 16.1998 128.341 16.7289 126.066 16.9935C119.054 17.7872 111.284 22.1792 103.071 29.9577C96.1848 36.5192 94.9213 38.7945 96.3743 41.9165C96.9429 43.1336 94.6686 46.5202 93.4683 46.2027C93.0893 46.0968 92.268 46.4672 91.6994 46.9964C90.1832 48.4251 87.8458 48.7426 85.5083 47.7901C83.234 46.8906 81.5915 45.0914 82.5391 44.6152C83.4867 44.139 83.2972 43.2923 82.2864 43.2923C80.2648 43.2923 76.9165 50.383 77.8642 52.5525C78.5591 54.0341 79.3804 53.3462 79.3804 51.2296C79.3804 50.1184 79.6962 48.5838 80.0753 47.843L80.8334 46.5202L82.6654 47.7901C85.1292 49.5363 87.214 49.9067 89.9937 49.2188C91.2572 48.9013 92.3312 48.6897 92.3943 48.7426C92.4575 48.7955 92.0153 50.1713 91.3835 51.7588C89.9937 55.357 89.6146 57.3148 90.4359 57.4207C90.815 57.4207 91.4467 56.1507 91.8889 54.5633C93.7842 47.4197 99.9121 40.9111 108.883 36.4663L113.432 34.1909L114.885 35.3551C115.706 35.99 117.222 36.8896 118.359 37.26C120.697 38.1066 125.877 38.2654 126.445 37.4717C126.698 37.1542 125.751 36.9425 124.108 36.9425C120.886 36.9425 116.148 35.2492 115.579 33.9263C115.327 33.3972 114.695 32.6564 114.063 32.286C113.432 31.9685 112.8 30.9102 112.547 30.0635C112.294 29.164 111.852 28.4761 111.473 28.4761C110.841 28.4761 111.031 30.1694 111.852 32.4447C112.231 33.3443 111.663 33.7676 108.883 34.9847C106.988 35.7784 103.766 37.6304 101.618 39.0591C98.3959 41.2286 97.7642 41.4932 97.5115 40.6995C96.6902 38.0537 100.607 33.3443 109.894 25.9891C114.632 22.2321 121.455 18.8984 126.003 18.1576L128.088 17.7872L126.761 19.9568C126.066 21.1738 125.624 22.1263 125.814 22.1263C126.003 22.1263 124.613 23.3962 122.655 24.9837C120.76 26.5711 119.18 28.2115 119.18 28.6878C119.18 29.9048 119.559 29.7461 122.086 27.4178C125.561 24.19 128.972 22.1263 132.952 20.7505C134.911 20.1155 136.617 19.2689 136.743 19.0043C137.122 18.1047 135.543 18.3164 131.879 19.7451C129.983 20.4859 128.341 20.9621 128.151 20.8563C128.025 20.6976 128.909 19.3747 130.236 17.8931C132.889 14.8769 136.932 12.337 141.228 11.0141C144.64 9.90287 150.768 9.10915 150.768 9.79704C150.768 10.0087 149.757 10.8024 148.557 11.4903C145.903 13.0249 142.302 16.6231 143.06 17.0464C143.376 17.2052 145.019 16.1469 146.725 14.6652C148.43 13.2365 151.147 11.3316 152.726 10.4849C158.033 7.57461 167.13 5.66966 171.615 6.5163L173.574 6.88671L170.478 9.58538C168.709 11.1728 165.993 14.6652 163.971 17.8931C161.128 22.5496 159.612 24.2429 154.495 28.5819L148.43 33.7676L146.977 32.4447C146.156 31.7039 144.829 31.1218 144.008 31.1218C142.05 31.1218 142.113 31.9685 144.134 32.3918C145.019 32.6035 146.156 33.2914 146.661 33.9793C147.546 35.0905 147.546 35.5138 146.535 38.6887C145.903 40.6466 145.145 42.234 144.892 42.234C144.577 42.234 143.755 41.652 143.06 40.9111C141.292 39.0591 137.375 38.2654 133.395 39.0062C131.689 39.3766 125.245 41.7578 119.18 44.3506C113.116 46.9435 108.062 48.8484 107.935 48.5838C107.809 48.3193 107.177 47.5255 106.545 46.8906C105.092 45.356 104.208 45.991 105.535 47.6314C106.861 49.2188 106.798 50.2771 105.282 52.6583C104.587 53.7695 104.018 55.4099 104.018 56.3095C104.018 57.3148 103.513 58.3202 102.692 58.9552C100.607 60.5427 100.102 61.6539 99.2804 66.9454C98.6486 70.7024 97.9537 72.5544 96.3743 74.8827C95.174 76.576 94.1001 78.9042 93.9105 80.0684L93.5947 82.185H89.9937C87.0245 82.185 85.9505 81.8675 83.7394 80.5975C80.5807 78.6926 78.6854 75.8351 78.2432 72.3427C77.8642 68.7445 76.6638 69.062 76.9797 72.6602C77.1061 74.8298 76.9797 75.5706 76.348 75.5706C74.9581 75.5706 75.653 76.3643 79.8226 79.4334C84.0553 82.5554 87.0245 83.6666 91.194 83.6137C93.5947 83.6137 93.9737 83.8253 95.5531 85.7303C97.7642 88.376 100.354 89.5402 103.26 89.1168C105.914 88.7994 108.441 86.9473 108.441 85.4128C108.378 84.4074 108.314 84.4074 106.988 85.7303C103.387 89.3814 98.0801 88.2173 95.8689 83.3491C94.7318 80.915 95.0477 79.645 97.701 75.4118C99.7858 72.0782 100.354 70.5965 100.797 66.8925C101.112 64.2996 101.807 61.8126 102.376 61.0189C103.45 59.696 104.65 59.2727 104.65 60.2252C104.65 61.0718 107.177 62.9239 107.872 62.6064C108.188 62.3947 107.809 61.601 106.861 60.6485C103.892 57.6853 105.408 53.0287 110.336 49.8538C111.536 49.113 117.096 46.5731 122.655 44.2977C130.931 40.8582 133.268 40.1174 135.732 40.1174C141.102 40.1174 142.997 41.4932 143.25 45.5677C143.376 47.4197 143.06 48.478 141.734 50.1184C139.839 52.4467 138.954 52.8171 138.322 51.3354C137.754 50.0126 136.174 48.5838 135.543 48.9013C135.29 49.0072 135.543 49.9067 136.238 50.8592C138.07 53.5579 138.322 55.7274 137.438 62.1301C136.364 70.2791 136.996 72.5015 141.986 78.3222C146.472 83.5608 149.504 88.5348 149.504 90.4926C149.504 91.3393 149.82 91.9743 150.136 91.9743C151.084 91.9743 150.894 88.5348 149.883 86.4711C149.378 85.4657 146.851 82.0791 144.261 78.8513C138.765 72.1311 137.943 69.8557 138.765 64.1938C139.08 62.1301 139.333 59.061 139.396 57.2619C139.396 54.3516 139.586 53.9283 141.607 52.2879C142.808 51.2825 143.819 50.1713 143.819 49.8009C143.819 49.4305 144.134 49.113 144.45 49.113C144.829 49.113 145.082 49.5363 145.082 50.0126C145.082 50.5417 145.777 52.3937 146.661 54.087C148.178 57.1561 148.178 57.3148 147.167 60.2781C146.219 63.2413 146.409 66.0458 147.609 66.0458C147.988 66.0458 148.241 64.7759 148.241 63.2413C148.241 61.7597 148.493 60.1723 148.809 59.7489C149.631 58.6906 151.399 61.7068 151.842 65.0405C152.347 68.5329 153.547 68.427 153.168 64.8288C152.979 62.9768 151.905 60.331 149.883 56.7857C145.208 48.478 145.082 46.7318 148.43 38.0008C149.631 34.9847 150.452 33.9793 155.632 29.5873C160.37 25.5658 162.076 23.6079 164.793 19.2689C169.973 11.0141 174.711 6.72796 177.554 7.62752C178.122 7.83918 178.691 7.62752 178.88 7.2042C179.133 6.72796 179.828 6.5163 180.649 6.62213C181.407 6.78088 183.303 6.5163 184.882 6.04007C186.398 5.61675 187.725 5.29925 187.788 5.35217C187.851 5.40508 186.84 6.78088 185.577 8.36833C183.934 10.432 182.671 11.4374 181.092 11.8607C178.186 12.6545 177.68 13.9244 180.46 13.3953L182.418 13.0249L180.776 15.3531C179.828 16.5702 177.87 18.6339 176.48 19.8509C173.89 22.1263 173.637 23.1846 175.974 22.1792C177.427 21.4913 181.723 16.5702 185.135 11.5432C186.461 9.6383 188.673 6.88671 189.999 5.40508C192.147 3.07682 193.032 2.54767 196.127 1.80685C201.939 0.431061 208.32 0.748552 214.132 2.6535C215.08 2.97099 215.838 3.34139 215.838 3.55305C215.838 3.76472 213.374 5.458 210.405 7.31003C207.372 9.21498 204.277 11.1728 203.519 11.6491C202.129 12.6015 202.066 12.5486 201.307 11.067C200.613 9.58538 198.97 8.57999 198.275 9.16206C198.086 9.32081 198.401 9.84996 198.97 10.3791C200.992 12.2311 200.234 13.5011 193.347 19.6393C181.597 30.0635 178.628 34.0851 179.386 38.6358C179.702 40.4349 179.575 40.6466 178.312 40.6466C176.101 40.6466 172.816 41.7049 170.541 43.1336C168.962 44.0861 168.457 44.1919 168.457 43.6098C168.457 42.5515 165.424 39.5883 164.287 39.5883C163.024 39.5883 163.213 40.5407 164.603 41.1228C166.688 42.0753 167.509 44.6681 166.751 48.0018C166.309 49.9596 166.246 55.4099 166.498 63.9292C166.877 75.4647 167.13 77.2109 168.33 79.7509C169.088 81.3383 169.594 82.767 169.404 82.8729C168.583 83.5608 162.329 81.0208 159.423 78.7984C154.558 75.0414 151.526 73.454 149.125 73.454C147.988 73.454 146.851 73.6656 146.661 73.9831C146.409 74.3006 146.977 74.5123 147.925 74.5123C150.452 74.5123 153.421 75.7822 155.822 77.8988C158.222 80.0154 158.033 81.1267 155.316 82.185C153.547 82.8199 153.547 83.5078 155.19 83.5078C155.948 83.5078 157.212 82.9258 158.033 82.2379L159.612 80.915L162.329 82.185C163.782 82.8729 166.435 83.7195 168.141 84.037C169.91 84.3545 171.931 85.0424 172.753 85.5186L174.206 86.4711L167.825 91.7626C158.791 99.1707 157.97 99.5411 148.304 99.9645C138.765 100.441 138.512 100.282 138.891 95.5196C139.207 91.9743 138.006 91.2864 137.059 94.4613L136.49 96.4721L133.268 93.8263C128.404 89.7518 127.393 86.8944 126.698 75.5706C126.066 64.6701 125.751 62.3947 124.298 59.114C123.034 56.4682 123.413 54.9866 125.624 52.9758C126.382 52.2879 126.761 51.6 126.509 51.3883C126.193 51.1238 125.056 51.8646 123.918 52.9758C121.834 54.9866 121.771 54.9866 120.949 53.9283C120.507 53.2933 119.812 52.8171 119.37 52.8171C118.233 52.8171 118.359 53.1875 120.128 55.1453C121.012 56.0978 121.707 57.1561 121.707 57.5265C121.707 57.844 122.086 58.6906 122.592 59.3256C123.666 60.7014 124.866 65.8342 124.866 69.062V71.3374L122.086 69.697C120.57 68.7974 118.801 68.1625 118.17 68.2683C117.159 68.427 117.285 68.6387 118.928 69.3266C120.002 69.8557 121.707 71.0199 122.781 72.0253C124.487 73.6656 124.677 74.2477 125.119 78.9042C125.308 81.7087 125.687 84.4074 125.94 84.8836C126.256 85.6244 126.13 85.7303 125.119 85.3599C124.487 85.0953 122.718 84.8307 121.265 84.672C119.117 84.5132 118.549 84.6191 118.549 85.307C118.549 85.9419 118.991 86.0478 120.318 85.8361C123.097 85.4128 126.193 87.2119 128.151 90.3868C130.173 93.6676 132.384 95.7312 135.227 97.0012C136.364 97.5304 137.564 98.5887 137.943 99.4353C138.575 100.811 138.449 101.023 136.238 102.24C134.911 102.981 132.952 104.727 131.815 106.208L129.794 108.801L127.014 107.055C122.781 104.356 118.612 103.351 111.284 103.351C106.861 103.351 103.892 103.616 101.491 104.303L97.9537 105.256L95.174 102.928C93.2156 101.34 91.194 100.282 88.8566 99.647C82.4759 97.9008 76.9797 95.2021 72.4311 91.6568C68.0089 88.1644 66.4295 88.0056 69.7778 91.4451L71.6099 93.2442L69.7146 94.3554C67.5667 95.5725 66.24 97.0541 66.9349 97.5833C67.1245 97.7949 68.1984 97.2129 69.2092 96.2604C71.4203 94.3025 73.1892 94.1967 75.8426 95.89C78.5591 97.5833 81.0861 98.6416 86.4559 100.229C94.2896 102.61 96.5007 104.462 94.795 107.267C93.4683 109.436 92.9629 114.093 93.8474 115.945C94.795 118.009 95.8689 117.321 95.1108 115.098C94.3527 112.876 95.0477 109.013 96.4375 107.849C98.8382 105.838 104.65 104.515 110.968 104.462C118.233 104.409 122.339 105.468 126.193 108.325L128.846 110.283L124.234 117.797C121.076 122.771 119.054 125.417 118.043 125.787C115.769 126.687 111.599 126.422 107.493 125.099L103.766 123.882L107.493 122.4C110.399 121.236 112.231 120.919 115.264 120.919C119.054 120.866 120.191 120.443 118.17 119.808C115.832 119.067 111.852 119.596 106.735 121.342L101.302 123.247L95.5531 122.453C86.0769 121.131 82.5391 120.919 82.5391 121.501C82.5391 122.136 83.3604 122.242 92.2048 123.247C95.2372 123.565 97.8905 124.041 98.0801 124.305C98.2696 124.57 99.3435 124.782 100.481 124.782C103.513 124.782 105.029 126.475 105.471 130.285C105.914 133.936 107.493 136.106 109.894 136.317C112.042 136.529 112.105 135.576 110.02 135.153C107.998 134.73 107.43 133.724 106.925 129.597C106.545 126.316 106.545 126.263 107.998 126.634C112.042 127.639 114.505 127.957 116.148 127.692C117.096 127.48 117.917 127.48 117.917 127.639C117.917 127.851 116.906 129.597 115.706 131.608C112.8 136.529 111.915 139.598 112.8 141.767C113.179 142.72 113.368 143.567 113.242 143.725C113.052 143.831 109.641 143.302 105.598 142.455C99.2172 141.185 98.0801 140.815 96.5007 139.333C95.4899 138.328 94.3527 136.423 93.9105 134.783C92.7102 130.444 91.4467 128.221 90.6886 128.856C90.1832 129.279 90.2464 129.756 90.815 130.497C91.8889 131.925 91.2572 132.454 89.4883 131.661C88.7934 131.343 87.4035 131.131 86.4559 131.237C84.9397 131.449 84.8765 131.502 86.0137 131.872C90.5623 133.248 91.6362 134.042 93.0261 137.058C93.7842 138.751 94.2896 140.127 94.1001 140.127C93.9737 140.127 91.0045 139.545 87.5299 138.804C75.274 136.211 69.9673 133.936 64.9765 129.279C62.3232 126.74 56.6375 119.12 56.6375 118.009C56.6375 117.797 57.6483 117.691 58.8486 117.797C62.3864 118.167 61.4387 117.003 57.6483 116.262C52.9733 115.416 49.6883 113.775 48.1721 111.553C46.2136 108.748 46.4032 101.975 48.5511 98.3241C49.5619 96.5779 49.8778 95.5196 49.4987 95.3079C49.1197 95.0963 48.6775 95.255 48.5511 95.5725C47.9825 97.107 47.1613 95.9958 47.1613 93.5617C47.1613 92.0801 47.3508 90.916 47.5403 90.916C47.7298 90.916 48.8038 91.498 49.941 92.2388C52.0889 93.6146 53.4787 93.9321 53.4787 93.0855C53.4787 92.8209 52.7838 92.2388 51.8994 91.7626C48.0457 89.646 46.7822 85.254 48.8038 81.55C49.4356 80.5446 51.394 78.6397 53.226 77.3168C56.7638 74.7239 57.3324 73.1365 53.9841 75.1473L52.0257 76.3114L52.4048 73.2952C52.9102 70.0145 55.1213 64.4584 56.0057 64.4584C56.3216 64.4584 56.6375 64.7759 56.827 65.0934C57.3324 66.3633 59.6699 63.9292 60.807 61.0718C62.0705 57.844 64.2816 55.7274 67.1876 54.8807C68.388 54.5633 69.4619 54.4045 69.5883 54.5103C69.7778 54.6162 69.6515 56.8386 69.3356 59.4844C68.8302 64.2996 68.8934 64.9875 69.9673 64.9875C70.2832 64.9875 70.5359 63.7176 70.5359 62.183C70.5359 58.7436 72.5575 50.383 74.0105 47.843C74.6423 46.7847 76.4111 44.9856 78.0537 43.8215C79.6331 42.6573 83.2972 40.0645 86.0769 38.0537C93.1524 32.9739 98.0801 30.1694 100.607 29.7461C101.807 29.5873 102.755 29.1111 102.755 28.7407C102.755 28.1586 102.25 28.1586 100.418 28.5819C96.8166 29.3756 93.0261 31.3864 87.6562 35.3021C85.0029 37.26 81.0861 39.9587 78.875 41.3874C74.2632 44.2977 73.3156 45.4089 71.5467 49.748C70.2832 52.8171 70.0937 52.9229 66.8718 53.8224C62.7022 55.0395 61.3756 56.0449 60.0489 59.114C58.6591 62.183 58.0273 62.8709 56.6375 62.8709C54.0473 62.8709 51.773 67.5275 50.6359 75.0414C50.32 76.8935 49.6251 78.4809 48.6775 79.4334C46.5927 81.4971 45.5819 84.8836 46.4032 87.0532C46.8454 88.3231 46.7822 89.3285 46.0873 91.0218C45.3924 92.8209 45.3292 93.8792 45.7714 95.9958C46.2136 97.6891 46.2136 99.4353 45.8978 100.758C45.0765 103.563 45.1397 109.066 45.961 110.865C46.7822 112.77 50.0041 115.522 52.2784 116.315C53.6051 116.791 54.8686 118.167 57.0165 121.554C62.4495 130.179 67.1245 134.042 75.5899 137.005C77.9273 137.852 86.9613 139.968 95.6162 141.767C115.137 145.736 113.242 145.154 111.978 146.741C111.41 147.429 110.968 149.07 110.968 150.287C111.031 154.943 118.801 167.696 123.35 170.659C126.13 172.405 130.868 172.882 133.647 171.717C135.29 171.03 135.669 171.03 136.301 171.717C137.754 173.146 140.786 174.099 143.819 174.099C146.093 174.046 147.167 174.31 147.988 175.157C149.883 176.903 152.41 177.697 155.759 177.697C159.802 177.697 163.529 176.48 170.226 173.04C176.038 170.077 177.933 169.442 186.777 167.378C190.062 166.638 193.853 165.421 195.18 164.68L197.643 163.304L198.654 164.574C202.571 169.177 210.531 174.151 217.227 176.109C220.765 177.115 221.523 177.591 224.366 180.713C226.135 182.565 231.126 187.063 235.485 190.555L243.382 197.011L250.521 213.415C254.501 222.41 257.975 230.242 258.228 230.718C259.112 232.146 262.84 232.411 267.515 231.459C269.789 230.982 272.316 230.242 273.074 229.818L274.464 229.077L272.695 225.215C270.168 219.659 267.641 209.605 267.199 203.255L266.82 197.752L269.599 198.757C280.149 202.514 287.667 201.562 301.376 194.63C323.677 183.359 336.375 170.924 337.575 159.229C338.081 154.414 336.691 150.763 332.395 145.366C330.5 142.984 328.92 140.974 328.92 140.921C328.92 140.868 330.5 140.55 332.458 140.18C334.543 139.757 336.754 138.91 338.017 138.01C339.47 136.952 340.292 136.635 340.987 137.005C342.377 137.746 346.546 137.534 348.884 136.635C351.726 135.471 354.19 131.978 354.632 128.327C354.822 126.792 354.506 122.771 353.937 119.437C353.432 116.104 352.99 111.606 353.116 109.436C353.306 104.462 352.674 101.922 350.779 100.07C349.452 98.7474 349.263 97.9537 349.073 92.5034C348.82 87.1061 348.631 86.0478 347.051 83.3491C346.041 81.6558 344.209 79.5921 342.819 78.6926C340.734 77.3168 340.355 76.6289 339.976 74.3006C339.028 68.6916 335.617 63.6117 331.195 61.3364C329.489 60.4368 328.794 59.5373 327.657 56.4682C325.888 51.9704 322.413 47.2081 317.865 43.2923C316.033 41.7049 314.137 39.747 313.695 38.9533C312.305 36.7838 295.69 20.1684 293.795 19.1101C292.848 18.6339 290.826 18.1576 289.31 18.1047C286.846 17.9989 286.341 17.7872 284.698 15.8823C282.866 13.7657 278.886 11.4374 275.854 10.7495C274.969 10.5908 272.189 9.53247 269.662 8.47416C265.809 6.88671 264.293 6.56922 259.87 6.35756C254.816 6.1459 254.564 6.09298 253.806 4.61136C252.037 1.2777 248.562 0.960212 229.231 2.23018L218.87 2.91807L215.016 1.59519C210.341 -0.0451755 200.36 -0.521412 195.622 0.642721ZM250.836 3.65888C253.49 5.40508 253.869 7.99793 252.163 13.2894C251.721 14.6652 251.784 14.7711 253.363 14.4007C254.627 14.1361 255.385 14.4007 256.901 15.6706L258.796 17.2581L257.533 19.5863C256.143 22.1263 255.954 24.772 256.838 29.0582C258.923 39.112 258.986 39.3766 257.659 41.4932C256.964 42.6573 253.932 45.4089 250.963 47.6843C247.994 49.9596 245.53 52.1821 245.53 52.6054C245.53 53.8224 246.161 53.505 248.815 50.965C250.205 49.6421 251.595 48.6897 251.847 48.8484C252.163 49.0072 252.605 50.4359 252.795 52.0233C253.048 53.6108 253.49 54.9337 253.806 54.9337C254.564 54.9337 254.501 51.9175 253.742 49.6951C253.174 48.0018 253.363 47.7901 256.459 44.8798C258.228 43.1865 259.807 41.8636 259.934 41.9695C260.06 42.0753 260.439 43.0807 260.755 44.2448C261.513 47.1551 260.565 51.0179 257.786 56.2036C256.522 58.5848 254.564 62.3947 253.427 64.6701C252.226 66.9454 250.963 69.062 250.457 69.2737C250.015 69.5382 248.562 69.7499 247.299 69.7499C245.972 69.7499 244.898 69.9616 244.898 70.2791C244.898 70.8611 245.53 70.967 248.562 70.8082C250.521 70.7024 250.647 70.8082 250.268 71.8665C248.815 75.7293 247.362 83.7195 246.983 89.9635C246.793 93.985 246.477 97.2658 246.351 97.2658C245.34 97.2658 240.792 94.7788 237.822 92.6092C233.59 89.4873 230.936 88.9052 226.388 90.0693L223.355 90.8101L223.734 89.3814C224.114 87.8469 223.04 84.7249 222.345 85.307C222.092 85.5186 221.966 86.5769 222.092 87.7411C222.281 90.2281 221.144 92.2388 216.596 97.0012C209.52 104.462 204.972 108.431 203.898 108.06C203.329 107.902 199.791 107.214 195.938 106.526L188.988 105.362V102.663C188.988 100.388 188.673 99.6999 187.283 98.4828C185.198 96.7366 184.061 97.2658 186.082 99.0649C186.904 99.7528 187.535 101.023 187.535 101.975C187.599 103.404 186.904 104.198 183.555 106.949C181.344 108.748 178.312 111.341 176.796 112.77C172.753 116.58 169.341 118.432 166.498 118.432C162.771 118.432 159.233 116.95 156.517 114.357C153.8 111.712 152.473 111.976 154.874 114.728C156.643 116.739 159.991 118.749 162.392 119.278C164.919 119.808 164.35 120.39 160.749 121.078C155.064 122.189 151.779 123.247 149.883 124.623C148.114 125.893 147.925 125.893 147.167 124.993C146.156 123.829 146.093 121.395 147.04 119.913C147.419 119.331 147.546 118.696 147.293 118.538C146.598 117.956 145.082 120.125 145.082 121.713C145.082 122.983 144.829 123.194 143.25 123.194C141.292 123.194 138.133 124.94 138.954 125.628C139.207 125.84 140.218 125.681 141.165 125.205C142.302 124.623 143.313 124.517 144.324 124.835C145.714 125.311 146.219 127.11 145.082 127.692C144.766 127.851 144.008 129.385 143.439 131.026C142.871 132.666 141.734 134.941 140.912 136C140.091 137.058 139.27 138.487 139.08 139.175C138.765 140.233 138.385 140.445 136.932 140.233C135.922 140.127 134.026 140.497 132.573 141.132C129.541 142.455 126.509 142.561 123.982 141.45C121.771 140.497 121.707 140.497 121.707 141.344C121.707 142.349 124.424 143.302 127.204 143.302C129.667 143.302 129.604 143.196 127.772 147.271C127.267 148.435 126.825 150.657 126.761 152.139C126.761 154.89 125.372 157.06 123.603 157.06C123.287 157.06 122.971 157.272 122.971 157.589C122.971 158.277 125.308 158.277 125.814 157.589C126.509 156.637 127.393 157.589 127.393 159.229C127.393 160.076 127.709 160.764 128.088 160.764C128.53 160.764 128.657 159.97 128.404 158.489C127.393 152.298 128.72 146.636 131.879 143.619C134.09 141.45 135.732 140.921 137.438 141.662C138.449 142.138 138.575 142.508 138.133 143.884C137.375 146.001 136.364 147.006 134.911 147.006C134.216 147.006 133.711 147.218 133.711 147.535C133.711 148.541 136.617 148.064 137.943 146.9C139.27 145.63 140.091 143.619 140.281 140.921C140.407 140.021 141.228 138.222 142.113 136.899C143.06 135.523 144.261 133.195 144.829 131.608C146.093 127.957 147.23 126.898 149.946 126.898C151.779 126.898 152.031 126.74 151.779 125.946C151.273 124.729 152.726 124.147 159.486 122.612C168.962 120.496 174.774 117.374 180.397 111.394C184.819 106.685 185.514 106.473 192.589 107.267C200.865 108.166 207.056 110.071 213.627 113.669C220.892 117.638 221.65 117.85 229.989 118.379C236.685 118.802 236.938 118.855 238.707 120.496C240.855 122.506 240.918 123.512 239.086 125.893C238.012 127.216 235.99 128.327 231.694 130.126C225.187 132.772 220.765 136.053 222.155 137.111C222.787 137.587 223.04 137.587 223.229 137.111C224.24 134.836 225.819 133.936 234.348 130.602C237.507 129.385 239.023 128.38 240.286 126.845C242.371 124.253 245.53 123.353 255.764 122.665C259.87 122.4 264.482 121.924 266.062 121.607C270.168 120.813 274.78 118.802 276.675 116.844L278.317 115.204L281.413 116.051C283.94 116.739 285.014 116.791 287.099 116.315C290.005 115.68 293.542 113.458 293.542 112.294C293.542 111.288 292.342 111.341 291.9 112.347C291.205 113.775 287.541 115.257 284.572 115.257C280.781 115.257 279.328 114.304 279.834 112.188C280.149 110.918 280.023 110.495 279.328 110.495C278.823 110.495 278.381 110.918 278.381 111.5C278.381 112.611 275.727 116.051 273.769 117.426C271.052 119.331 265.935 120.496 256.459 121.289C251.342 121.765 246.098 122.348 244.898 122.665C241.929 123.406 241.739 123.353 241.739 122.189C241.739 120.707 239.402 118.538 236.938 117.797C235.232 117.268 234.79 116.897 235.043 116.104C235.611 114.357 233.779 111.817 230.178 109.172C226.135 106.261 225.124 104.674 225.377 101.287C225.567 98.5357 224.619 98.0066 223.861 100.441C222.913 103.51 224.429 106.208 229.168 110.018C232.263 112.558 233.527 113.934 233.527 114.887C233.527 116.527 232.579 116.844 227.651 116.844C223.166 116.844 220.828 116.051 213.879 112.294C211.226 110.865 208.509 109.436 207.878 109.066C206.74 108.537 206.867 108.325 209.583 105.891C213.753 102.187 218.554 97.3187 220.513 94.7788C222.471 92.2918 225.756 90.916 229.799 90.916C232.958 90.916 234.285 91.498 238.138 94.4613C242.687 98.0066 246.035 99.1178 252.479 99.1178C259.112 99.1178 262.145 98.0595 267.515 93.9321C272.126 90.3868 274.337 89.3814 278.381 88.9581C282.74 88.5348 285.646 89.1168 288.236 91.0218C292.658 94.3025 293.606 98.4828 290.636 101.499C288.804 103.298 288.931 104.039 290.889 103.139C291.963 102.663 292.658 101.605 293.795 98.6945C294.174 97.742 294.237 97.742 296.133 98.6945C300.808 100.97 304.851 106.526 305.356 111.447C306.304 120.284 298.723 127.639 288.615 127.639C285.077 127.639 284.445 127.48 283.371 126.316C282.74 125.628 282.171 125.152 282.108 125.311C282.108 125.47 281.918 126.634 281.792 127.957C281.287 131.555 278.823 135.629 275.285 138.487C269.41 143.249 262.397 145.313 249.889 145.789L241.992 146.106L237.254 144.149C229.041 140.762 221.966 140.55 213.374 143.514C205.982 146.001 204.15 145.842 196.759 141.873L193.727 140.286L195.053 139.28C195.811 138.751 197.138 136.846 198.086 135.1C199.665 132.19 202.318 129.756 205.477 128.168C206.109 127.798 206.488 127.375 206.235 127.163C205.54 126.581 201.434 128.486 199.665 130.179C198.844 131.079 198.022 131.714 197.959 131.608C197.896 131.502 197.517 130.92 197.138 130.391C196.253 128.962 194.611 128.539 195.306 129.862C195.622 130.444 195.938 131.978 196.127 133.301C196.506 137.375 193.411 140.127 188.23 140.127C186.904 140.127 184.313 140.709 182.481 141.45C180.586 142.191 178.944 142.773 178.754 142.773C178.565 142.773 179.512 141.556 180.776 140.127C182.102 138.645 182.924 137.27 182.671 137.058C182.229 136.688 178.944 139.492 178.438 140.709C178.186 141.291 177.743 141.185 176.543 140.233C174.648 138.804 171.679 138.698 169.657 140.074C167.067 141.82 168.962 142.244 171.742 140.55C173.195 139.651 175.911 140.762 176.417 142.508C176.733 143.567 176.227 144.572 174.269 147.059C171.552 150.393 168.078 156.901 167.383 159.811C167.004 161.346 167.13 161.452 167.951 160.923C168.457 160.552 169.215 159.229 169.657 158.012C172.121 151.08 177.301 144.942 182.545 142.72C183.871 142.138 186.335 141.503 188.041 141.344C191.2 141.027 193.411 141.715 200.613 145.154C204.34 146.9 207.183 146.847 213.121 144.837C219.818 142.561 226.072 142.191 232.137 143.778C234.537 144.36 237.191 145.313 237.949 145.842L239.402 146.847L237.254 148.17C234.474 149.916 232.01 150.498 224.682 151.239C220.26 151.663 217.354 152.298 213.627 153.673C204.782 156.954 202.002 157.166 198.591 154.943C196.443 153.515 195.369 153.515 196.253 154.943C196.822 155.843 196.696 156.107 195.18 156.584C193.979 156.954 193.032 156.954 191.894 156.531C189.999 155.79 189.241 156.372 190.82 157.377C192.4 158.33 194.8 158.277 196.885 157.377C198.465 156.637 200.676 157.06 200.676 158.118C200.676 159.071 196.064 162.933 193.727 163.939C192.4 164.521 187.851 165.791 183.619 166.849C175.28 168.913 174.016 169.336 168.52 172.299C163.908 174.786 158.601 176.586 155.948 176.639C151.463 176.639 146.977 173.517 146.977 170.395C146.977 168.595 145.84 169.019 145.587 170.924C145.398 172.511 145.208 172.67 143.124 172.829C141.418 172.934 140.344 172.67 138.891 171.612L136.932 170.236L138.196 168.437C138.891 167.431 139.396 166.108 139.207 165.421C139.017 164.309 138.891 164.415 137.943 166.108C137.375 167.167 136.048 168.648 135.037 169.389C131.057 172.194 126.572 171.717 122.529 168.013C118.485 164.309 112.231 153.25 112.231 149.811C112.231 149.123 112.926 147.959 113.747 147.271C115.011 146.212 115.706 146.054 117.222 146.265C119.749 146.689 119.686 145.948 117.096 144.625C114.505 143.249 113.558 140.497 114.569 137.323C115.769 133.724 131.752 108.06 134.469 105.468C137.627 102.504 140.533 101.658 149.125 101.287C154.369 101.023 156.769 100.705 158.791 99.8586C161.507 98.7474 161.571 98.7474 162.455 99.6999C163.782 101.129 163.592 103.774 162.139 105.362C161.444 106.103 161.128 106.843 161.444 107.002C161.76 107.214 162.645 106.685 163.339 105.944C164.982 104.198 165.108 100.652 163.655 98.9062C162.645 97.742 162.708 97.6362 165.361 95.3079C169.278 91.9214 179.639 84.5132 182.987 82.6612C187.03 80.3859 189.62 79.645 193.032 79.645C196.885 79.698 199.791 80.9679 201.434 83.2962C202.129 84.3016 202.95 84.9895 203.266 84.8307C203.834 84.5132 203.392 83.1374 202.318 81.9733C200.865 80.4388 211.415 74.7768 218.744 73.1894C220.765 72.7661 224.429 72.3957 226.893 72.3957C232.389 72.3957 235.169 73.5069 236.938 76.4172C238.138 78.3222 238.265 78.3751 238.454 77.2109C238.96 74.3535 233.148 70.8082 228.03 70.8082H225.377L226.388 68.5329C227.02 67.1571 227.525 63.5059 227.778 58.6377C228.283 49.4834 228.978 48.0018 233.337 46.3614C235.106 45.7264 235.99 45.1444 235.611 44.8269C234.79 44.139 231.821 45.0914 229.799 46.626L228.283 47.7901L228.662 45.0385C229.168 41.5461 231.758 36.7838 235.801 32.1272C238.644 28.8465 240.476 25.407 240.476 23.2904C240.476 20.8034 239.591 21.2267 238.77 24.137C238.391 25.5658 237.128 27.9999 235.99 29.5344C234.221 31.9156 233.842 32.1801 233.463 31.3335C233.211 30.8044 232.579 29.2698 232.01 27.9469C230.747 24.9837 228.852 22.92 227.904 23.3962C227.399 23.6608 227.588 24.19 228.536 25.1954C232.137 29.0582 232.516 32.921 229.736 37.6833C227.209 42.0224 226.577 45.2502 226.577 54.1399C226.577 65.1992 224.872 71.3374 221.776 71.3374C219.691 71.3374 211.858 73.6656 208.509 75.306C206.867 76.0997 204.529 77.5813 203.203 78.5338L200.802 80.3329L198.086 79.2746C196.569 78.6926 194.864 78.2163 194.295 78.2163C192.716 78.2163 192.463 77.1051 192.463 70.5965C192.463 66.8396 192.084 63.6647 191.515 61.9714C190.505 59.114 187.851 56.2565 186.714 56.8386C186.272 57.0503 186.651 57.6853 187.662 58.5848C189.683 60.3839 190.441 62.0772 190.947 66.3104C191.263 68.7445 191.136 69.9616 190.568 70.5436C189.557 71.6019 184.313 71.6019 182.608 70.5436C181.344 69.8557 180.46 69.9616 180.46 70.8082C180.46 71.7607 185.577 73.0306 187.914 72.7132C190.315 72.3957 190.441 72.4486 190.82 74.036C191.642 77.6872 191.452 78.0047 187.535 79.2217C185.451 79.8038 181.913 81.55 179.639 82.9787L175.406 85.6244L173.511 84.1428C172.5 83.2962 170.857 81.2325 169.91 79.4863L168.204 76.3643L168.078 62.6593C168.014 54.722 168.204 48.3722 168.583 47.5785C169.973 44.4035 174.016 42.1811 178.249 42.1282C180.586 42.0753 181.218 42.3399 183.24 44.1919C184.503 45.356 188.293 47.9489 191.642 49.9596C202.508 56.4153 204.782 58.9552 204.719 64.8288C204.719 68.5329 205.161 69.5912 205.982 67.845C206.172 67.3687 206.361 65.7284 206.361 64.1409V61.2835H208.509C211.036 61.2835 214.448 59.2198 213.69 58.1615C213.311 57.6853 212.932 57.7911 212.3 58.5319C211.1 60.0135 208.573 60.3839 206.361 59.4315C205.287 58.9552 204.466 58.3731 204.466 58.1086C204.466 56.9444 198.97 52.6054 193.411 49.3776C186.777 45.5148 181.471 40.9111 180.902 38.6358C180.523 36.9425 181.028 34.773 182.355 32.6564C185.387 27.894 200.992 14.7711 211.226 8.36833C216.912 4.87593 218.301 4.24095 221.081 3.92346C227.209 3.34139 230.115 3.55305 233.716 4.98176C237.759 6.5163 241.739 7.2042 241.739 6.35756C241.739 6.04007 240.855 5.61675 239.781 5.458C238.644 5.24634 236.748 4.66427 235.485 4.24095L233.211 3.34139L237.001 3.0239C245.53 2.33601 249.068 2.49475 250.836 3.65888ZM267.388 8.84457C269.157 9.47955 271.684 10.9612 273.011 12.0724C275.348 14.0832 276.801 14.4536 276.043 12.8661C275.159 10.8553 279.328 12.972 283.308 16.5702C286.151 19.1101 286.909 19.5334 288.236 19.2689C291.331 18.581 293.858 20.3272 303.082 29.6931C308.009 34.7201 312.495 39.6941 313.063 40.7524C313.632 41.8636 314.39 42.7632 314.832 42.7632C315.275 42.7632 317.043 44.1919 318.812 45.991C324.119 51.3354 327.341 57.6853 328.099 64.0351C328.541 68.2154 329.552 68.8503 329.552 64.9875C329.552 63.5059 329.805 62.3418 330.057 62.3418C331.005 62.3418 335.111 66.3104 336.564 68.6387C338.397 71.6549 338.965 76.0997 337.512 76.0997C335.806 76.0997 336.375 77.1051 338.586 77.8459C341.429 78.8513 345.598 82.9787 346.546 85.7303C347.62 88.7464 348.125 93.5088 347.62 95.89L347.178 97.7949L343.135 95.5196C339.407 93.4559 339.028 93.1384 339.028 91.3922C339.028 89.2756 338.017 86.524 336.628 84.7249C335.175 82.767 334.543 83.9312 335.87 86.1536C337.891 89.4343 338.144 92.133 336.628 94.9904C335.933 96.4191 335.175 98.5357 334.922 99.7528C334.669 101.023 334.353 102.028 334.227 102.028C332.016 102.028 326.646 97.5833 322.603 92.5563C317.107 85.6774 313.885 83.6137 305.862 81.6558C303.777 81.1796 301.123 80.28 299.986 79.698L297.902 78.5867L300.113 77.1051C303.335 74.8298 303.903 72.8719 303.335 65.1463C303.019 60.5956 302.64 58.6377 302.134 58.7965C301.376 59.0081 301.313 60.1193 302.071 66.6808C302.513 70.7553 302.387 71.4961 301.187 73.6127C300.429 74.8827 299.102 76.2056 298.281 76.523C296.575 77.2109 296.385 77.0522 295.943 74.8298C295.817 74.2477 295.438 73.7185 295.059 73.6127C294.616 73.5069 294.427 74.9885 294.427 78.1105C294.49 82.185 294.301 83.0316 292.974 84.6191C292.153 85.6244 290.573 87.0002 289.436 87.5823C287.478 88.6406 287.225 88.6935 284.635 87.8998C281.35 86.9473 277.622 87.2648 273.579 88.7994C271.495 89.5402 270.673 89.646 270.547 89.1698C269.41 85.8361 267.894 83.402 266.062 81.9204C263.345 79.698 262.397 80.1742 264.798 82.5554C266.883 84.6191 268.841 88.0585 268.904 89.646C268.904 91.3393 264.229 95.0433 260.249 96.5779C256.838 97.9008 250.015 98.5887 249.004 97.6891C248.057 96.8954 248.688 84.6191 249.952 79.1688C251.847 70.967 257.343 58.1086 258.986 58.1086C259.302 58.1086 262.524 60.5956 266.125 63.6647C271.431 68.1625 272.695 69.5382 272.695 70.8082C272.695 71.6549 272.442 72.5015 272.063 72.6602C271.242 73.0836 271.242 74.5123 272.126 74.5123C272.505 74.5123 273.137 73.7715 273.516 72.9248C274.401 71.0199 274.653 70.967 276.233 72.4486C278.002 74.0889 282.171 75.7822 282.929 75.1473C283.308 74.8298 282.487 74.1948 280.592 73.454C278.76 72.7132 276.169 70.8082 273.453 68.2683C268.02 63.0826 264.735 60.331 261.766 58.3202L259.365 56.6799L260.755 53.8224C262.65 49.9067 262.713 44.2448 260.818 39.3766C258.481 33.2914 259.302 28.8994 263.029 27.4707C263.85 27.1532 264.419 26.677 264.229 26.4124C263.598 25.6187 261.387 26.4124 260.06 27.8411C259.365 28.5819 258.607 29.0052 258.354 28.7936C258.102 28.5819 257.912 26.8357 257.912 24.8779C257.912 20.8034 259.049 18.6339 262.082 16.6231C264.419 15.0886 264.04 14.1361 261.639 15.459C259.997 16.3585 259.934 16.3585 258.481 15.0356C257.659 14.2948 256.269 13.554 255.322 13.3424C254.185 13.1307 253.806 12.7603 253.995 12.2311C254.248 11.8078 254.564 10.5379 254.753 9.47955L255.132 7.46878L259.681 7.57461C262.713 7.62752 265.24 8.05084 267.388 8.84457ZM298.344 80.28C299.228 80.8621 302.261 81.9733 305.103 82.7141C313.695 85.0953 316.033 86.6298 321.529 93.5617C322.919 95.255 322.919 99.5411 321.529 101.552C320.96 102.346 320.708 103.245 320.96 103.457C321.655 104.092 323.171 102.081 323.93 99.5411L324.624 97.3716L326.457 99.1178C328.289 100.811 333.974 103.616 335.68 103.616C336.249 103.616 336.501 102.769 336.564 101.076C336.628 98.2183 337.954 94.8317 338.902 94.9904C339.281 95.0963 341.997 96.4721 344.967 98.0595C351.158 101.446 351.663 102.24 351.663 108.854V112.823L349.389 110.971C348.189 110.018 346.546 108.325 345.851 107.32C343.956 104.727 342.756 103.616 342.124 103.933C341.808 104.092 342.25 105.097 343.071 106.156C346.104 110.124 346.42 112.294 344.967 121.448C344.714 123.035 344.777 124.253 345.156 124.253C345.977 124.253 347.999 114.516 347.494 112.876C346.988 111.077 347.81 111.235 349.957 113.405C351.411 114.887 351.853 116.051 352.611 120.866C353.369 125.258 353.432 127.216 352.927 129.227C351.663 134.095 347.683 136.899 343.135 136.211C340.924 135.841 340.924 135.841 340.924 133.089C340.924 130.391 340.86 130.285 338.081 128.856C332.205 125.734 328.225 119.649 327.783 113.034C327.594 110.495 327.278 109.066 326.899 109.278C326.52 109.436 326.33 111.341 326.52 113.881C326.709 117.109 327.215 118.908 328.541 121.183C330.437 124.517 330.31 125.787 328.099 127.798C327.404 128.486 327.025 129.174 327.278 129.385C327.594 129.65 328.668 128.962 329.805 127.851L331.826 125.946L335.427 128.75C338.333 131.026 339.028 131.872 339.028 133.248C339.028 135.682 337.954 136.952 334.922 138.063C326.836 141.08 315.148 139.333 307.062 133.883C303.335 131.396 302.008 131.555 304.977 134.095L306.936 135.788L303.398 136.899C298.786 138.328 292.153 139.175 288.552 138.804C283.814 138.275 279.644 137.428 279.644 136.952C279.644 136.688 280.213 135.682 280.844 134.73C281.539 133.777 282.361 132.031 282.74 130.867L283.371 128.75H288.362C292.595 128.75 293.858 128.539 297.017 127.163C300.365 125.734 303.966 122.718 305.103 120.443C305.609 119.437 311.042 124.57 311.926 126.898C312.937 129.438 313.19 129.703 313.885 129.121C314.832 128.327 312.369 124.147 309.273 121.342L306.556 118.908L306.367 112.982C305.862 99.1178 305.798 99.4882 309.336 94.7788C310.41 93.3501 309.589 92.3976 308.452 93.7205C307.378 94.9375 307.251 94.8846 305.925 92.768C305.23 91.7626 304.345 90.916 303.84 90.916C302.766 90.916 302.766 91.7097 303.966 92.5034C305.419 93.5088 305.798 96.5779 304.914 99.8586C304.409 101.499 304.029 102.875 303.903 102.981C303.84 103.086 302.45 101.975 300.871 100.547C299.291 99.1178 297.017 97.5304 295.817 97.0012C294.49 96.4191 293.479 95.4667 293.227 94.6729C293.037 93.8792 292.026 92.4505 291.016 91.3393L289.183 89.4343L290.763 88.5348C293.1 87.2648 296.069 83.0845 296.069 81.0208C296.069 79.0101 296.259 78.9042 298.344 80.28ZM311.863 137.958C316.222 139.704 316.412 139.545 309.02 140.656C295.88 142.72 280.149 148.964 267.515 157.166C262.966 160.182 261.26 160.976 259.934 160.87C258.923 160.764 258.165 160.499 258.165 160.235C258.165 158.277 270.926 147.906 277.18 144.837C282.234 142.297 289.183 140.18 292.279 140.127C296.701 140.074 304.851 138.169 307.883 136.476C307.883 136.423 309.715 137.111 311.863 137.958ZM284.382 139.704C285.267 139.81 284.445 140.392 281.413 141.556C273.137 144.837 265.24 150.181 259.555 156.372C256.206 159.97 255.764 160.235 253.616 160.235C252.289 160.235 251.215 160.076 251.215 159.811C251.215 159.018 257.47 151.398 260.186 148.858C262.145 147.006 264.672 145.524 268.336 143.99C271.242 142.773 274.59 140.974 275.727 139.968C277.812 138.169 277.875 138.169 280.465 138.804C281.918 139.175 283.687 139.545 284.382 139.704ZM327.91 142.402C329.994 144.678 329.994 144.889 327.594 144.889C323.93 144.889 309.905 147.535 302.197 149.705C293.29 152.192 281.034 156.954 275.222 160.182C271.368 162.351 270.989 162.404 267.83 162.087C265.998 161.928 264.482 161.558 264.482 161.346C264.482 160.711 269.978 157.007 275.222 154.044C289.499 146.001 307.378 140.868 321.466 140.709C326.267 140.656 326.33 140.656 327.91 142.402ZM332.395 147.588C332.964 148.488 333.279 149.334 333.153 149.44C332.964 149.599 328.794 150.075 323.803 150.498C308.452 151.821 298.66 154.308 289.499 159.124C284.319 161.875 279.707 163.092 275.854 162.775L273.642 162.616L278.381 160.129C291.395 153.303 316.475 146.265 328.731 146.001C331.131 145.948 331.51 146.106 332.395 147.588ZM257.722 149.387C256.017 150.975 253.363 154.097 251.784 156.319C249.447 159.706 248.562 160.499 246.225 161.346C244.708 161.928 243.319 162.299 243.192 162.14C242.687 161.716 247.93 153.62 250.773 150.34C253.679 147.059 254.311 146.741 258.986 146.53C260.818 146.477 260.818 146.477 257.722 149.387ZM243.635 147.271C243.635 147.429 242.624 148.646 241.297 150.022C239.023 152.562 235.359 158.7 234.537 161.399C234.095 162.986 233.084 163.357 232.516 162.087C231.315 159.547 239.339 147.006 242.181 147.006C243.003 147.006 243.635 147.112 243.635 147.271ZM251.215 147.271C251.215 147.429 249.889 149.123 248.246 151.08C245.53 154.414 240.476 162.669 240.476 163.78C240.476 164.098 239.97 164.68 239.339 165.156C238.328 165.897 238.138 165.897 236.748 165.05L235.232 164.045L236.875 160.129C238.896 155.367 240.918 152.192 243.95 149.228C245.909 147.324 246.604 147.006 248.752 147.006C250.078 147.006 251.215 147.112 251.215 147.271ZM233.969 153.726C233.148 155.102 232.074 157.166 231.631 158.33L230.873 160.341L229.673 158.859C229.041 158.012 228.283 156.531 228.094 155.578C227.841 154.626 227.335 153.885 226.83 153.885C224.682 153.885 228.346 160.552 232.2 163.621L234.727 165.685L231.126 167.484C229.168 168.49 225.756 170.712 223.608 172.511L219.754 175.739L214.258 173.464C209.899 171.717 207.625 170.342 203.645 167.061C198.97 163.198 198.654 162.828 199.539 161.928C200.107 161.452 200.992 160.288 201.497 159.388C202.381 158.012 202.95 157.695 205.287 157.483C206.74 157.324 210.405 156.319 213.311 155.208C216.848 153.885 220.197 153.038 223.419 152.721C226.009 152.403 229.736 151.927 231.631 151.557C233.527 151.239 235.169 150.975 235.295 151.028C235.422 151.08 234.79 152.298 233.969 153.726ZM335.238 152.562C335.617 153.568 335.806 154.626 335.554 154.89C334.985 155.737 325.951 157.959 318.433 159.124C309.336 160.552 301.439 161.293 294.553 161.293C287.794 161.293 287.92 160.923 295.564 157.748C305.356 153.726 309.715 152.88 333.785 150.763C334.164 150.763 334.859 151.557 335.238 152.562ZM336.249 159.229C335.996 160.711 335.238 163.198 334.543 164.733C333.09 168.013 333.216 167.96 322.224 168.49C310.284 169.072 297.522 167.325 289.247 164.045L285.646 162.616L297.333 162.246C303.777 162.087 311.61 161.558 314.706 161.081C321.908 159.97 330.373 158.224 332.9 157.324C336.375 156.055 336.691 156.213 336.249 159.229ZM257.849 164.468C264.988 172.617 281.855 181.665 301.06 187.698L307.567 189.761L305.23 191.084L302.829 192.46L298.344 191.137C286.404 187.592 270.673 180.078 261.26 173.305C257.091 170.289 249.952 163.357 249.952 162.193C249.952 161.981 251.215 161.822 252.732 161.822C255.385 161.822 255.701 161.981 257.849 164.468ZM265.43 164.997C278.949 173.94 292.721 179.337 310.536 182.671L317.107 183.888L313.632 186.057C311.737 187.274 309.652 188.28 309.083 188.28C304.282 188.28 281.855 179.708 273.263 174.575C267.83 171.294 261.071 166.055 258.67 163.304L257.343 161.716L259.491 162.087C260.692 162.299 263.345 163.621 265.43 164.997ZM250.584 165.368C253.616 169.336 262.334 176.215 269.599 180.237C276.169 183.888 288.804 189.444 295.88 191.719C300.808 193.307 301.06 193.889 297.396 195.159C295.754 195.688 294.869 195.529 289.626 193.836C269.41 187.063 256.775 179.284 247.615 167.802C244.645 164.045 244.329 163.092 246.035 162.722C248.12 162.246 248.373 162.404 250.584 165.368ZM278.381 166.373C284.382 169.548 288.109 171.03 295.438 173.146C302.576 175.263 315.275 177.591 320.581 177.75C322.35 177.856 323.866 178.014 323.866 178.226C323.866 178.385 322.729 179.443 321.403 180.554C318.497 182.935 318.433 182.935 304.788 180.131C295.375 178.173 286.656 175.21 278.823 171.241C273.579 168.648 265.809 163.939 265.746 163.357C265.746 163.198 267.641 163.357 270.042 163.621C273.2 164.045 275.348 164.733 278.381 166.373ZM288.109 164.944C296.891 168.49 307.63 169.971 321.971 169.654C328.731 169.548 331.89 169.654 331.637 170.024C331.384 170.289 330.121 171.929 328.731 173.569C326.267 176.533 326.141 176.639 323.298 176.639C315.717 176.639 302.134 174.151 292.595 170.977C286.846 169.125 277.749 165.05 277.749 164.362C277.749 164.045 279.581 163.727 283.055 163.516C283.687 163.463 285.962 164.098 288.109 164.944ZM246.098 168.225C254.121 178.755 268.841 188.174 286.53 194.153C290.384 195.423 293.542 196.64 293.542 196.799C293.542 196.958 292.469 197.381 291.142 197.752C288.931 198.387 288.362 198.281 284.635 197.011C266.251 190.502 249.257 180.29 240.286 170.236C238.328 168.066 238.138 167.378 239.591 167.855C241.044 168.331 241.929 167.696 241.044 166.796C240.476 166.214 240.476 165.897 241.108 165.262C242.434 163.939 243.192 164.362 246.098 168.225ZM233.842 168.542C231.884 172.776 233.337 175.739 238.77 178.649C240.918 179.761 246.225 183.412 250.521 186.745C254.816 190.079 259.807 193.677 261.639 194.735L264.924 196.693L265.682 203.466C266.504 210.928 268.588 219.447 270.989 224.95L272.569 228.548L270.547 229.395C267.894 230.559 260.439 230.982 259.681 230.03C259.428 229.607 255.827 221.722 251.847 212.515L244.519 195.741L239.275 191.931C233.969 188.068 222.155 177.009 222.155 175.898C222.155 175.104 226.009 172.035 230.052 169.601C233.59 167.431 234.474 167.22 233.842 168.542ZM246.098 177.591C254.564 184.682 265.746 191.084 278.696 196.27L286.277 199.286L283.435 199.657C281.602 199.868 279.012 199.71 276.296 199.18C268.525 197.646 263.029 194.735 252.163 186.163C247.994 182.935 243.319 179.602 241.802 178.861C237.949 176.903 234.916 174.416 234.474 172.829C234.221 172.088 234.474 170.659 235.043 169.495L236.054 167.484L238.896 170.659C240.413 172.458 243.698 175.58 246.098 177.591Z" fill="black"/>
<path d="M229.862 12.3899C220.26 14.7711 214.195 18.1577 211.289 22.8671C210.594 24.0312 209.646 25.2483 209.267 25.5658C206.867 27.6295 203.645 27.6824 201.56 25.7774C200.297 24.6133 199.159 24.9837 200.044 26.3066C201.244 28.2645 205.035 28.8994 208.509 27.6824C209.583 27.2591 209.646 27.5236 209.394 31.1219C209.141 34.7201 209.015 35.0905 207.056 36.4134C205.856 37.3129 205.287 38.0008 205.666 38.2125C206.488 38.6358 208.636 37.7363 209.331 36.678C209.836 35.9901 210.341 36.043 213.121 36.9955C216.217 38.1067 218.365 38.1067 218.365 36.9425C218.365 36.678 217.417 36.4134 216.217 36.4134C215.016 36.4134 213.374 35.9372 212.426 35.3022C210.91 34.2968 210.784 33.8735 210.784 30.3811C210.784 27.3649 211.099 25.9891 212.426 23.8725C215.332 18.8985 220.197 16.094 230.052 13.607C233.147 12.8662 235.801 11.9666 235.927 11.5962C236.243 10.8025 235.99 10.8554 229.862 12.3899Z" fill="black"/>
<path d="M208.383 46.3613C211.036 51.3883 212.047 52.4466 212.047 50.1712C212.047 49.5891 212.616 48.6367 213.311 48.0546C214.637 46.9434 214.953 45.938 214.069 45.938C213.753 45.938 212.995 46.4142 212.363 46.9963L211.226 48.0546L210.341 46.9963C209.52 45.9909 207.878 45.4618 208.383 46.3613Z" fill="black"/>
<path d="M278.444 98.377C276.927 101.076 276.612 107.32 277.938 107.32C278.444 107.32 278.696 106.314 278.696 103.986C278.696 101.869 279.075 100.07 279.833 98.9061C280.528 97.6891 280.718 96.8954 280.276 96.525C279.897 96.2075 279.265 96.8424 278.444 98.377Z" fill="black"/>
<path d="M264.166 109.066C260.755 110.6 254.121 110.918 250.015 109.754C246.414 108.801 246.161 108.748 246.161 109.33C246.161 110.018 249.131 111.024 252.732 111.606C257.849 112.399 267.641 110.389 267.641 108.537C267.641 107.69 267.262 107.743 264.166 109.066Z" fill="black"/>
<path d="M263.535 127.956C261.829 129.544 256.08 131.661 251.784 132.296C246.983 132.983 246.73 134.042 251.468 133.566C253.363 133.407 255.322 133.089 255.89 132.931C256.585 132.719 257.091 133.089 257.596 134.095C257.912 134.941 258.86 136.158 259.618 136.846C261.197 138.275 265.619 139.386 266.567 138.592C267.262 138.01 266.883 137.852 263.661 137.217C261.387 136.846 258.796 134.518 258.796 132.983C258.796 132.243 259.365 131.608 260.439 131.184C262.65 130.391 266.377 127.956 266.377 127.374C266.377 126.528 264.672 126.898 263.535 127.956Z" fill="black"/>
<path d="M153.674 136.317C153.295 136.846 156.706 139.651 160.37 141.926C162.013 142.932 162.771 143.196 163.15 142.72C163.403 142.402 163.15 141.926 162.581 141.662C162.076 141.397 159.928 139.968 157.843 138.54C155.758 137.058 153.863 136.053 153.674 136.317Z" fill="black"/>
<path d="M153.926 158.912C152.979 160.499 151.715 161.716 150.073 162.51C148.746 163.145 147.609 163.833 147.609 164.045C147.609 164.838 149.378 164.468 151.652 163.145C154.369 161.61 154.558 161.558 154.558 162.616C154.558 163.939 156.011 166.055 156.896 166.055C157.906 166.055 157.906 166.002 156.769 164.15C156.201 163.198 155.822 161.505 155.948 159.864C156.011 158.33 155.885 156.954 155.695 156.795C155.506 156.636 154.684 157.589 153.926 158.912Z" fill="black"/>
<path d="M281.35 22.4437C281.16 22.7612 281.413 24.0312 281.982 25.354C282.55 26.8357 282.803 28.5819 282.55 30.2222C282.297 32.0743 282.424 32.7093 282.992 32.5505C284.256 32.233 284.256 26.4124 282.929 23.9783C282.297 22.867 281.603 22.1262 281.35 22.4437Z" fill="black"/>
<path d="M295.817 36.4134C297.333 43.1866 294.427 48.4252 285.709 54.2988C281.666 57.1033 281.223 57.1562 276.738 55.9391C276.296 55.8333 275.854 55.9391 275.79 56.2566C275.474 56.8916 279.202 58.0557 281.602 58.0557C283.119 58.1087 283.308 58.3203 283.687 60.8602C284.572 66.5222 286.025 70.8083 287.035 70.8083C287.604 70.8083 287.857 70.4908 287.667 70.0675C286.72 68.0038 285.835 64.5114 285.33 60.9132L284.824 56.8387L289.562 53.1346C292.595 50.7005 295.248 49.1131 296.954 48.6898C300.239 47.7902 305.988 48.2135 309.336 49.5893C310.915 50.2243 311.989 50.383 312.242 50.0656C312.748 49.3777 311.61 48.7427 308.578 47.9489C306.493 47.4727 306.241 47.2081 306.556 46.0969C306.999 44.6153 306.051 44.5095 304.851 45.8853C303.65 47.2611 295.122 47.896 295.817 46.5202C297.207 43.8216 297.901 41.8108 297.965 40.6996C297.965 39.9058 298.786 38.8475 300.049 37.948C302.261 36.3605 302.071 35.2493 299.734 36.6251C297.901 37.7363 297.333 37.6834 297.333 36.4664C297.333 35.9372 296.891 35.1435 296.322 34.7731C295.374 34.1381 295.311 34.2968 295.817 36.4134Z" fill="black"/>
<path d="M295.501 55.7275C293.416 57.3149 292.974 57.4737 292.279 56.7858C291.837 56.3624 291.268 55.992 290.952 55.992C289.942 55.992 290.384 57.1562 292.026 58.7436C292.911 59.6432 293.795 61.0719 293.985 61.8656C294.553 64.4055 295.627 63.6647 295.185 61.019C294.68 58.2145 295.375 56.8387 297.965 55.7275C301.313 54.2988 303.84 54.775 307.757 57.4737C308.831 58.2145 312.242 59.8019 315.401 61.0719C321.592 63.4531 323.866 65.2522 323.866 67.6863C323.866 68.5329 324.182 69.2208 324.498 69.2208C325.509 69.2208 325.193 65.8343 324.056 64.4585C322.35 62.3948 320.708 61.4423 316.033 59.9078C313.695 59.114 310.852 57.8441 309.715 57.0503C305.925 54.3517 304.724 53.8754 301.313 53.8754C298.407 53.8754 297.649 54.0871 295.501 55.7275Z" fill="black"/>
<path d="M312.937 68.4801C312.684 68.6918 312.495 69.5384 312.495 70.3321C312.495 71.1259 311.8 72.5016 310.915 73.3483C309.21 75.0416 309.399 75.8353 311.294 74.9887C312.242 74.5653 313 74.777 314.895 75.994C318.37 78.2694 322.287 79.3806 327.151 79.3806C331.258 79.3806 332.711 79.116 332.711 78.3223C332.711 78.1107 330.247 77.9519 327.151 77.9519C321.402 77.9519 319.57 77.4228 315.211 74.7241C313.379 73.5599 313.253 73.3483 313.885 71.7079C314.516 69.9088 313.885 67.6864 312.937 68.4801Z" fill="black"/>
<path d="M326.141 84.4604C325.825 84.9366 328.352 90.3339 329.805 92.2389C330.374 92.9797 331.132 93.5618 331.447 93.5618C332.332 93.5618 332.332 93.6676 329.868 89.5402C328.668 87.5294 327.657 85.4657 327.657 84.9366C327.657 84.037 326.709 83.7195 326.141 84.4604Z" fill="black"/>
<path d="M334.417 109.278C334.227 111.288 333.848 113.405 333.595 114.04C332.9 115.998 334.48 115.469 335.491 113.405C335.996 112.4 337.133 111.288 338.018 110.918C340.292 110.071 340.102 109.225 337.765 109.595C335.933 109.913 335.87 109.913 335.87 107.849C335.87 104.357 334.796 105.468 334.417 109.278Z" fill="black"/>
<path d="M76.5374 56.5212C76.2847 56.8387 76.6637 57.6324 77.3587 58.2674C78.6853 59.5374 80.6437 62.5006 80.6437 63.3473C80.6437 63.6119 79.8225 63.9823 78.8117 64.1939C76.2215 64.6702 72.1152 67.7922 70.5358 70.5437C69.7777 71.8666 68.8933 72.9249 68.5774 72.9249C67.6298 72.9249 65.4818 68.7975 65.4818 66.8397C65.4818 65.0935 64.7237 64.4056 63.9656 65.4639C63.1444 66.5222 65.0396 71.4433 66.8085 73.1895C68.1983 74.5124 68.5774 75.3061 68.3247 76.2586C67.9456 77.3169 67.4402 77.5815 65.1028 77.846C60.4279 78.2694 56.1952 81.4972 54.7421 85.6775C53.9209 88.0057 53.9209 92.0802 54.7421 93.8793C55.3107 95.0964 55.1844 95.5197 53.8577 96.6838C50.4463 99.7529 50.4463 104.568 53.984 109.013C56.7637 112.558 70.5358 120.019 70.5358 118.009C70.5358 117.797 68.1983 116.474 65.3555 115.045C62.5126 113.617 59.1644 111.659 57.8377 110.653C53.0996 107.055 51.5834 101.922 54.1736 98.3771L55.4371 96.578L58.3431 99.3296C61.8809 102.769 65.1028 104.304 71.4834 105.732C76.9164 107.002 79.5066 108.484 79.2539 110.23C79.1907 110.812 79.3803 111.394 79.6961 111.553C80.0752 111.712 80.391 111.077 80.5174 110.177C80.7701 108.008 78.3695 106.05 74.4526 105.203C65.7977 103.351 61.1228 100.917 58.0904 96.7367C53.2259 90.0694 55.5634 82.238 63.1444 79.5922C67.2507 78.1635 68.0088 78.5868 68.0088 82.4497C68.0088 84.1959 68.2615 85.6246 68.6406 85.6246C69.0196 85.6246 69.2723 84.5133 69.2723 83.0846C69.3355 79.0102 70.4726 73.5599 71.7361 71.4433C73.3787 68.7975 76.032 66.628 79.0012 65.5697L81.4018 64.6702L83.8025 66.6809C85.3818 68.0567 86.7717 68.6917 87.9088 68.6917C88.8565 68.6917 90.0568 69.115 90.499 69.5913C91.2571 70.4379 91.3203 70.3321 91.3834 68.5859C91.3834 66.3634 90.499 65.5697 89.5514 66.9455C88.9828 67.8451 88.7933 67.8451 86.519 66.8397C84.6238 65.993 83.6761 64.9877 81.9072 61.9715C79.4434 57.6854 77.2955 55.5158 76.5374 56.5212Z" fill="black"/>
<path d="M106.166 114.146C103.639 115.098 102.313 116.104 102.945 116.633C103.071 116.791 104.208 116.421 105.408 115.786C107.809 114.622 111.41 114.252 114.632 114.939C117.285 115.469 117.348 114.516 114.695 113.722C111.789 112.876 109.136 113.034 106.166 114.146Z" fill="black"/>
<path d="M68.3247 122.612C68.1352 122.93 68.5143 123.406 69.2092 123.724C69.9041 123.988 70.7886 125.099 71.2308 126.105C71.673 127.11 72.3047 127.957 72.6206 127.957C73.6314 127.957 72.4943 124.623 71.0413 123.353C69.5882 122.03 68.8933 121.871 68.3247 122.612Z" fill="black"/>
</svg>
